<svg id="Capa_1" data-name="Capa 1" xmlns="http://www.w3.org/2000/svg" viewBox="0 0 899.94 184.28"><defs><style>.cls-1{fill:#fff;}</style></defs><path class="cls-1" d="M146.84,154.1c17.17,0,23.08-10.92,23.08-23.8,0-15-4.65-19.86-17.36-25.23-10-4.29-14.67-7-14.67-15.2,0-5.73,5-9.31,10.74-9.31,7.69,0,9.48,6.62,9.48,13.6H168a24.15,24.15,0,0,0,.54-5.19c0-8.94-6.26-18.61-20.94-18.61-12.88,0-20.75,8.41-20.75,19.69,0,12.52,2.68,17,18.07,23.43,12.35,5.19,13.42,10.56,13.42,15.93,0,10.19-4.12,14.67-11.45,14.67-6.8,0-10.2-5.55-10.2-15.21H125c0,2.15-.18,3.58-.18,5.72C124.83,146.05,132.88,154.1,146.84,154.1Z" transform="translate(-54.52 -18.84)"/><polygon class="cls-1" points="265.33 132.94 276.96 132.94 276.96 62.44 295.92 62.44 295.92 52.06 246.36 52.06 246.36 62.44 265.33 62.44 265.33 132.94"/><path class="cls-1" d="M504.31,153.74c19,0,23.44-12.17,23.44-24V70.9H516.12v58.86c0,7.16-1.26,14.32-11.81,14.32s-11.45-7.16-11.45-14.32V70.9H481.23v58.86C481.23,141.57,485.34,153.74,504.31,153.74Z" transform="translate(-54.52 -18.84)"/><polygon class="cls-1" points="606.16 58.8 621.9 132.94 636.04 132.94 651.78 58.8 651.78 132.94 661.98 132.94 661.98 52.06 642.66 52.06 629.06 121.84 615.28 52.06 595.96 52.06 595.96 132.94 606.16 132.94 606.16 58.8"/><path class="cls-1" d="M775.54,18.84h-721V203.12H954.45V18.84ZM233.43,197.75H59.89V24.2H233.43Zm178.91,0H238.8V24.2H412.34Zm178.92,0H417.71V24.2H591.26Zm178.91,0H596.63V24.2H770.17Zm178.92,0H775.54V24.2H949.09Z" transform="translate(-54.52 -18.84)"/><polygon class="cls-1" points="785.07 58.8 800.82 132.94 814.95 132.94 830.7 58.8 830.7 132.94 840.89 132.94 840.89 52.06 821.57 52.06 807.97 121.84 794.2 52.06 774.87 52.06 774.87 132.94 785.07 132.94 785.07 58.8"/></svg>