<?xml version="1.0" encoding="utf-8"?>
<!-- Generator: Adobe Illustrator 24.1.2, SVG Export Plug-In . SVG Version: 6.00 Build 0)  -->
<svg version="1.1" id="Capa_1" xmlns="http://www.w3.org/2000/svg" xmlns:xlink="http://www.w3.org/1999/xlink" x="0px" y="0px"
	 viewBox="0 0 500 169" style="enable-background:new 0 0 500 169;" xml:space="preserve">
<style type="text/css">
	.st0{fill:#6A6969;}
	.st1{fill:#777676;}
	.st2{fill:#747373;}
	.st3{fill:#E7E6E7;}
	.st4{fill:#A3A3A3;}
	.st5{fill:#373737;}
	.st6{fill:#C1C0C0;}
	.st7{fill:#3C3C3C;}
	.st8{fill:#DFDFDF;}
	.st9{fill:#D6D6D6;}
	.st10{fill:#2F2F2F;}
	.st11{fill:#7D7D7D;}
	.st12{fill:#666565;}
	.st13{fill:#B3B2B2;}
	.st14{fill:#565655;}
	.st15{fill:#242424;}
	.st16{fill:#FFFFFF;}
</style>
<path class="st0" d="M487.48,36.78c0.04,0.07,0.07,0.14,0.09,0.22c-0.7,0.19-1.12-0.36-1.77-0.58c0.54-0.48,1.04-0.27,1.51-0.21
	C487.13,36.47,486.85,36.76,487.48,36.78z"/>
<path class="st1" d="M485.93,29.69c-0.43,0.03-0.64-0.24-0.69-0.59c-0.04-0.31,0.21-0.28,0.42-0.21
	C485.53,29.23,485.82,29.43,485.93,29.69z"/>
<path class="st2" d="M477.53,112.94c-2.21-0.6-4.37-0.1-6.52,0.34c-1.25,0.26-2.51,0.22-3.76,0.19c-0.49-0.01-0.98-0.11-1.27-0.86
	c2.85,0.24,5.57-0.17,8.3-0.48c0.59,0.5,1.29,0.16,1.93,0.26C476.69,112.48,477.19,112.5,477.53,112.94z"/>
<path class="st3" d="M483.45,45.83c0.97-1.39,1.32-1.36,3.22-0.05C485.6,46.13,484.65,45.62,483.45,45.83z"/>
<path class="st4" d="M480.77,109.7c0.09-0.19,0.18-0.37,0.28-0.56c0.28,0.01,0.79-0.09,0.76,0.22
	C481.74,109.98,481.15,109.64,480.77,109.7z"/>
<path class="st5" d="M463.65,94.13c0.92-0.87,1.92-1.41,3.13-1.46c0.65-0.03,1.25,0.13,1.72,0.6c0.25,0.24,0.3,0.54,0.08,0.85
	c-0.16,0.23-0.46,0.52-0.65,0.35C466.59,93.18,465.12,93.77,463.65,94.13z"/>
<path class="st6" d="M477.23,9.05c-1.28-0.12-2.53,0.29-3.82,0.21c1.1-0.74,2.33-0.78,3.58-0.74C477.1,8.68,477.42,8.75,477.23,9.05
	z"/>
<path class="st7" d="M468.02,123.76c-0.58,0.14-1.15,0.54-1.77,0.18c-0.09-0.05-0.15-0.38-0.08-0.46c0.49-0.56,1.16-0.22,1.74-0.3
	c0.3-0.04,0.61,0.05,0.92,0.08C468.9,123.98,468.21,123.45,468.02,123.76z"/>
<path class="st8" d="M471.02,58.46c-0.67,0.56-1.35,0.4-2.33-0.04c0.85-0.22,1.44-0.37,2.04-0.53
	C470.53,58.23,470.89,58.29,471.02,58.46z"/>
<path class="st9" d="M477.23,9.05c-0.08-0.18-0.16-0.35-0.24-0.53c0.63,0.1,1.33-0.2,2.1,0.39C478.38,9.18,477.79,9.05,477.23,9.05z
	"/>
<path class="st10" d="M468.71,9.87c0.15-0.64,0.41-0.94,0.93-0.86c0.23,0.03,0.41,0.32,0.33,0.51
	C469.7,10.16,469.19,9.75,468.71,9.87z"/>
<path class="st11" d="M471.04,57.92c0.61-0.11,1.23-0.13,1.84-0.01c0.06,0.72-0.63,0.16-0.8,0.47h-0.12l-0.12-0.01
	C471.66,58.08,470.99,58.64,471.04,57.92z"/>
<path class="st12" d="M468.02,123.76c0.27-0.17,0.54-0.33,0.81-0.5c0.22-0.06,0.43-0.07,0.6,0.13c-0.12,0.1-0.23,0.25-0.37,0.28
	C468.73,123.73,468.37,123.73,468.02,123.76z"/>
<path class="st13" d="M472.08,58.39c0.27-0.16,0.54-0.31,0.8-0.47c0.17,0.01,0.43-0.05,0.49,0.04c0.23,0.31-0.16,0.34-0.28,0.37
	C472.76,58.39,472.42,58.37,472.08,58.39z"/>
<path class="st13" d="M471.04,57.92c0.27,0.15,0.54,0.3,0.8,0.46c-0.27,0.02-0.55,0.05-0.82,0.07c-0.43-0.02-0.45-0.24-0.29-0.56
	C470.84,57.9,470.94,57.91,471.04,57.92z"/>
<path class="st14" d="M463.77,99.1c0.29,0.23,0.43,0.28,0.45,0.37c0.06,0.21-0.09,0.33-0.28,0.37s-0.39-0.04-0.38-0.25
	C463.57,99.43,463.69,99.27,463.77,99.1z"/>
<path class="st15" d="M469.94,113.01c-0.92,0.29-1.83,0.26-2.76,0C468.1,113.01,469.02,113.01,469.94,113.01z"/>
<g>
	<path class="st16" d="M150.68,142.09c-0.02,0.03-0.05,0.06-0.07,0.09C150.64,142.16,150.67,142.13,150.68,142.09z"/>
	<path class="st16" d="M339.21,63.57c-0.09,0.02-0.18,0.05-0.27,0.1l0,0C339.03,63.62,339.12,63.6,339.21,63.57z"/>
	<path class="st16" d="M459.86,74.72c0.02,0.02,0.05,0.05,0.07,0.07C459.92,74.76,459.89,74.74,459.86,74.72z"/>
	<path class="st16" d="M455.88,131.34c0.07-0.04,0.13-0.08,0.2-0.13C456,131.23,455.92,131.26,455.88,131.34z"/>
	<path class="st16" d="M363.14,135.4c-0.03-0.04-0.08-0.08-0.09-0.14C363.06,135.32,363.1,135.37,363.14,135.4z"/>
	<path class="st16" d="M401.28,133.4L401.28,133.4c-0.01,0-0.01,0-0.02,0c0,0.06-0.01,0.11-0.06,0.17
		C401.23,133.52,401.25,133.46,401.28,133.4L401.28,133.4z"/>
	<path class="st16" d="M283.71,31.72c0.06,0.05,0.12,0.07,0.19,0.09C283.84,31.78,283.78,31.75,283.71,31.72z"/>
	<path class="st16" d="M236.72,141.24c0.2-0.04,0.4-0.09,0.6-0.13C237.11,141.11,236.91,141.14,236.72,141.24z"/>
	<path class="st16" d="M497.39,115.86c-0.04-21.64-0.02-43.29-0.03-64.94c-0.34-0.61-1.14-0.31-1.5-0.81
		c0.25-0.07,0.57-0.09,0.83-0.28c0.51-0.21,0.62-0.6,0.59-1.12c-0.04-0.74-0.1-1.51,0.01-2.24c0.27-1.74-0.1-3.04-2.04-3.46
		c-0.26-0.22-0.7-0.39-0.27-0.84c1.02-0.6,2.1-1.28,2.24-2.51c0.11-0.96-0.99-1.96,0-2.98c0.03-0.03-0.15-0.32-0.27-0.46
		c-0.74-0.85-1.55-1.65-0.34-2.77c0.19-0.17,0.14-0.63,0.14-0.95c0.01-0.92,0.16-1.8,0.36-2.71c0.21-0.92,0.99-2.34-0.55-3.14
		c-0.32-0.16-0.02-0.45,0.12-0.56c0.62-0.53,0.59-1.23,0.59-1.94c-0.01-2.83-0.06-5.66,0.02-8.49c0.03-1.13-0.22-1.52-1.45-1.52
		c-25.67,0.04-51.34,0.03-77,0.03c-0.42,0-0.88-0.06-1.26,0.08c-4.39,1.56-8.83,1.09-13.28,0.44c-4.21-0.61-8.43-0.87-12.66-0.16
		c-0.96,0.16-1.93,1.02-2.82-0.12c-1.15,1.1-2.52-0.13-3.4,0.15c-1.75,0.54-3.22,0.23-4.81-0.15c-1.43-0.34-2.88-0.61-4.19,0.39
		c-0.31,0.23-0.64,0.29-0.86-0.04c-0.49-0.74-1.22-0.59-1.91-0.59c-23.31,0-46.61-0.04-69.92,0.06c-2.24,0.01-4.49,0.46-6.76,0.26
		c-3.19-0.28-6.4-0.34-9.6-0.33c-9.69,0.03-19.38,0.04-29.07-0.01c-2.49-0.01-4.96,0.19-7.47,0.08c-5.01-0.22-10.03-0.06-15.04-0.06
		c-76.67,0-153.35,0-230.02-0.03c-1.38,0-1.61,0.44-1.6,1.67C4.2,33.46,4.19,51.1,4.19,68.75c0,1.45,0,1.45,1.31,1.23
		c-1.49,2.47-1.51,2.48-0.68,5.73c0.1,0.38-0.11,0.43-0.27,0.65c-0.74,1-0.69,2.78-0.23,3.11c1.42,0.99,0.94,2.2,0.6,3.12
		c-0.76,2.07-0.64,4.16-0.77,6.27c-0.07,1.19,0.9,1.87,1.02,2.76c0.11,0.85-1.05,1.55-1.02,2.76c0.12,5.14,0.14,10.29,0,15.43
		c-0.05,2.08,0.24,3.66,2.41,4.44c1.07,0.39,0.76,1.12,0.24,1.79c-0.34,0.43-0.82,0.6-1.35,0.7c-1.08,0.2-1.58,0.76-1.14,1.89
		c0.27,0,0.63,0.01,0.66,0.31c0.03,0.39-0.41,0.38-0.67,0.51c-0.37,0.88,0.09,1.39,0.76,1.87c1.01,0.73,1.52,1.82,1.77,2.98
		c0.21,0.97-0.83,1.26-1.35,1.82c-0.76,0.82-0.84,1.54-0.06,2.46c1.36,1.61,1.31,1.66-0.22,3.18c-0.1,0.1-0.19,0.21-0.3,0.3
		c-0.64,0.48-0.9,1.14-0.66,1.87c0.25,0.78,1.01,0.48,1.59,0.56c0.45,0.06,1.07-0.26,1.31,0.19c0.3,0.55-0.39,0.87-0.63,1.3
		c-0.4,0.71-1.28,1.38-0.75,2.26c0.45,0.75,0.15,0.99-0.39,1.3c-0.97,0.55-1.21,1.37-1.2,2.47c0.06,5.24,0.08,10.47-0.01,15.71
		c-0.02,1.41,0.43,1.68,1.75,1.68c162.77-0.03,325.53-0.03,488.3-0.03c0.47,0,0.94,0,1.42,0c0.41,0,0.61-0.08,0.7-0.61
		c0.52-3.2,1.24-6.37,1-9.66c-0.13-1.88,0.05-3.78-0.04-5.66c-0.17-3.36,0.52-6.77-0.56-10.08c-0.16-0.48-0.04-0.98,0.19-1.37
		c0.43-0.75,0.39-1.53,0.39-2.33c0-2.36-0.08-4.72,0.03-7.07c0.08-1.81-0.07-3.45-1.53-4.72c-0.1-0.32-0.25-0.45-0.41-0.49
		c-0.13,0.01-0.27,0.03-0.4,0.05c-0.15,0.05-0.29,0.12-0.43,0.17c-0.76,0.28-1.48,0.47-2.3,0.11c-1.3-0.57-1.5-0.44-1.58,1.01
		c-0.04,0.85-0.27,1.45-1.15,1.67c-0.68,0.31-1.33,0.67-1.91,1.15c-0.84,0.7-1.02,1.63-0.85,2.66c0.17,1.04,0.93,1.29,1.83,1.38
		c0.42,0.04,0.81,0.22,1.18,0.43c0.09,0.04,0.22,0.1,0.21,0.14c-0.03,0.21-0.25,0.13-0.38,0.21c-1.74,0.88-3.55,1.57-5.43,2.11
		c-0.46,0.13-1.04,0.18-1.14,0.83c0.38,0.56,0.98,0.47,1.53,0.46c0.74-0.01,1.39,0.15,1.92,0.68c0.92,0.81,1.79,1.68,3.14,1.75
		c0.54,0.03,0.8,0.42,0.88,0.95c0.16,1.03-0.16,1.42-1.33,1.44c-1.61,0.03-3.22-0.04-4.73,0.64c-0.35,0.16-0.78,0.36-0.76,0.75
		c0.03,0.53,0.57,0.56,0.98,0.6c1.32,0.12,2.64,0.04,3.96,0.06c1.79,0.03,1.94,0.16,1.95,1.94c0.02,3.87,0.01,7.74,0.01,11.61
		c0,2.53,0,2.53-2.47,2.54c-0.19,0-0.38,0-0.57,0c-24.11,0-48.22,0-72.32,0c-1.13,0-2.26,0-3.38,0.22c-5.99,1.16-12,0.89-18.02,0.23
		c-1.59-0.18-3.18-0.45-4.79-0.43c-8.77,0.12-17.55-0.34-26.31,0.28c-2.55,0.18-5.08-0.27-7.63-0.28
		c-11.97-0.07-23.95,0.06-35.92-0.01c-0.99-0.01-1.98,0.05-2.95,0.27c-1.72,0.39-3.49,0.47-5.21,0.23
		c-6.02-0.86-12.05-0.44-18.08-0.37c-0.49,0.01-0.98,0.07-1.31,0.43c-0.68,0.72-1.47,0.67-2.35,0.52
		c-3.67-0.64-7.41-0.87-11.11-1.01c-5.56-0.22-11.13-0.06-16.7-0.05c-1.46,0-2.92,0.15-4.34,0.52c-0.26,0.16-0.34,0.33-0.34,0.51
		c0.05,0,0.09,0,0.14,0c0.21,0.62,0.86,1.09,0.77,2.04c-0.86-0.59-0.96-1.41-1.36-2.05c0.1,0,0.21,0,0.31,0
		c-0.12-0.27-0.26-0.53-0.54-0.7c-1.06-0.53-2.21-0.34-3.33-0.34c-79.6-0.01-159.21-0.01-238.81-0.01c-3.39,0-3.18,0.19-3.18-3.13
		c0-36.62,0-73.23,0-109.85c0-1.37-0.36-2.76-0.22-4.08c0.39-3.63,0.13-7.26,0.2-10.88c0.09-4.19-0.42-3.9,3.9-3.9
		c153.74,0,307.47,0,461.21,0c3.77,0,7.55-0.1,11.32-0.05c1.02,0.01,2.08-0.16,3.04,0.39c0.61,0.62,0.41,1.42,0.41,2.15
		c0.01,23.44,0.01,46.87,0.01,70.31c0,7.12-0.01,14.24,0.01,21.36c0,1.9,0.61,2.47,2.52,2.65c0.63,0.06,1.23-0.13,1.83-0.23
		c0.14-0.05,0.27-0.08,0.4-0.05c0.19-0.02,0.37-0.03,0.56-0.01C497.09,117.51,497.39,117.02,497.39,115.86z"/>
	<path class="st16" d="M494.95,117.42c0.13-0.02,0.26-0.04,0.4-0.05C495.23,117.34,495.09,117.37,494.95,117.42z"/>
	<path class="st16" d="M4.35,125.95c0.22,0.03,0.35-0.12,0.35-0.33c0.01-0.19-0.04-0.37-0.26-0.43c-0.22,0-0.34,0.13-0.35,0.34
		C4.08,125.72,4.11,125.92,4.35,125.95z"/>
	<path class="st16" d="M4.28,118.63c0,0.27-0.01,0.55-0.01,0.82C4.58,119.18,4.69,118.91,4.28,118.63z"/>
	<path class="st16" d="M4.93,118.94c-0.02-0.31-0.38-0.31-0.66-0.31c0.41,0.28,0.3,0.55-0.01,0.82
		C4.53,119.32,4.96,119.33,4.93,118.94z"/>
	<path class="st16" d="M4.47,129.11c0.12-0.03,0.25-0.07,0.27-0.07c-0.15-0.39-0.27-0.51-0.47-0.44c-0.09,0.04-0.19,0.19-0.18,0.28
		C4.11,129.09,4.27,129.16,4.47,129.11z"/>
	<path class="st16" d="M256.95,154.49c-0.06-0.23-0.23-0.49-0.22-0.75c-0.05,0-0.1,0-0.14,0
		C256.7,154.01,256.79,154.28,256.95,154.49z"/>
	<path class="st16" d="M256.59,153.74c-0.1,0-0.21,0-0.31,0c0.4,0.63,0.51,1.46,1.36,2.05c0.09-0.96-0.56-1.42-0.77-2.04
		c-0.05,0-0.09,0-0.14,0c-0.01,0.26,0.16,0.52,0.22,0.75C256.79,154.28,256.7,154.01,256.59,153.74z"/>
	<path class="st16" d="M328.17,110.95c0-5.05-0.02-10.09,0.01-15.14c0.01-0.99-0.23-1.48-1.35-1.43c-1.74,0.08-3.49,0.07-5.23,0
		c-1.09-0.05-1.35,0.38-1.35,1.41c0.04,5.66,0.02,11.32,0.02,16.98c0,2.54,0,5.07,0,8.03c-0.43-0.48-0.59-0.64-0.72-0.82
		c-4.05-5.39-8.09-10.79-12.14-16.18c-0.33-0.44-0.56-1.12-1.21-1.08c-1.08,0.06-1.04-0.56-1.07-1.34c-0.06-1.48-1.8-3.17-3.26-3.28
		c-2.68-0.19-5.36-0.34-8.03-0.57c-0.84-0.07-1.19,0.14-1.19,1.05c0.02,11.27,0.03,22.55,0,33.82c0,0.92,0.35,1.11,1.17,1.09
		c1.74-0.04,3.49-0.07,5.23,0.01c1.13,0.05,1.41-0.34,1.41-1.45c-0.05-7.92-0.03-15.85-0.02-23.77c0-0.42-0.25-0.93,0.3-1.32
		c0.16,0.21,0.3,0.39,0.44,0.57c6.1,8.27,12.2,16.54,18.28,24.83c0.58,0.79,1.19,1.2,2.22,1.14c1.65-0.09,3.31-0.1,4.95,0
		c1.28,0.08,1.59-0.4,1.58-1.62C328.14,124.91,328.17,117.93,328.17,110.95z"/>
	<path class="st16" d="M89,79.91c10.61,0.29,20.98-7.87,21.02-20.36c0.04-11.82-9.38-20.14-19.73-20.33
		C78.64,39,69.41,48,69.32,59.46C69.24,70.36,78.33,79.62,89,79.91z M89.64,47.08c6.93-0.01,12.35,5.5,12.34,12.55
		c-0.01,6.74-5.59,12.29-12.36,12.29c-6.87-0.01-12.41-5.64-12.37-12.6C77.29,52.55,82.81,47.09,89.64,47.08z"/>
	<path class="st16" d="M179.38,100.37c-1.63-1.93-3.43-3.35-6.16-2.44c-0.09,0.03-0.19,0.04-0.28,0.03
		c-0.26-0.02-0.6,0.15-0.72-0.23c-0.08-0.26,0.19-0.4,0.34-0.56c1.18-1.28,1.18-1.28-0.5-1.96c-9.75-3.98-20.86,0.02-25.78,9.35
		c-2.38,4.51-2.89,9.3-1.78,14.27c0.18,0.83,0.47,1.33,1.53,1.12c1.05-0.21,2.15-0.14,3.23-0.19c0.7-0.07,1.4-0.15,2.1-0.22
		c1.72-0.18,1.72-0.18,1.19-1.76c-2.12-6.3,1.1-13.16,7.36-15.43c4.52-1.64,8.79-0.96,12.43,2.24c3.94,3.46,5.26,7.91,3.75,12.94
		c-1.41,4.71-4.69,7.65-9.56,8.61c-4.37,0.86-8.21-0.4-11.15-3.66c-1.28-1.42-2.4-2.48-4.38-2.13l0,0c-1.57,0.4-3.18,0.12-4.77,0.23
		c-0.99,0.07-1.08,0.3-0.73,1.18c3.47,8.58,12.77,13.97,21.91,12.39c7.76-1.34,13.26-5.8,15.97-13.2
		C186.14,113.39,184.56,106.48,179.38,100.37z"/>
	<path class="st16" d="M261.63,101.06c0.17-0.15,0.61-0.02,0.44-0.48c-0.15-0.39-0.47-0.7-0.86-0.57c-1,0.32-1.58-0.3-2.25-0.83
		c-3.93-3.13-8.43-4.72-13.45-4.77c-3.96-0.05-7.92,0.03-11.88-0.04c-1.12-0.02-1.45,0.29-1.44,1.42c0.05,6.03,0.02,12.07,0.02,18.1
		s0.03,12.07-0.02,18.1c-0.01,1.18,0.34,1.53,1.52,1.52c4.29-0.06,8.58-0.05,12.87-0.01c2.15,0.02,4.22-0.33,6.25-0.99
		c7.25-2.35,12.84-9.14,13.43-16.32c0.43-5.27-0.97-9.97-4.29-14.1C261.74,101.82,261.05,101.58,261.63,101.06z M254.08,123.43
		c-2.33,1.51-4.85,2.46-7.71,2.3c-1.79-0.1-3.58-0.05-5.37,0c-0.81,0.02-1.05-0.26-1.05-1.06c0.04-3.58,0.03-7.16,0-10.74
		c-0.01-0.77,0.27-1.05,1.03-1.17c2.93-0.46,5.85-0.98,8.76-1.5c0.45-0.08,0.95-0.04,1.45-0.52c-3.99-1.2-7.58-0.51-11.23,1.72
		c0-3.4,0-6.5,0-9.59c0-0.44,0.19-0.7,0.67-0.7c4,0.01,8.03-0.12,11.8,1.56c3.93,1.76,5.99,4.91,6.41,9.11
		C259.3,117.26,257.92,120.94,254.08,123.43z"/>
	<path class="st16" d="M150.7,79.02c3.44-0.04,6.89,0.01,10.33-0.03c2.4-0.02,4.79,0.15,7.17-0.46c5.22-1.33,9.29-4.23,12.32-8.63
		c0.18-0.26,0.5-0.52,0.33-0.87c-0.21-0.45-0.67-0.23-1.01-0.24c-0.85-0.03-1.7,0.01-2.55-0.02c-0.47-0.02-1.19,0.23-1.16-0.6
		c0.02-0.72,0.68-0.49,1.1-0.5c1.08-0.03,2.18-0.09,3.25,0.01c1.05,0.1,1.51-0.34,1.84-1.29c0.71-2.07,1.21-4.16,1.17-6.36
		c-0.76-0.57-1.54-0.04-2.3-0.02c-1.69,0.05-3.38,0.13-5.04,0.53c-0.48,7.28-7.29,10.83-12.41,10.69c-1.79-0.05-3.58-0.04-5.38,0.01
		c-0.82,0.02-1.17-0.17-1.16-1.09c0.04-7.12,0.02-14.24,0.02-21.36c0-0.57-0.08-1.15,0.81-1.14c3.4,0.01,6.8-0.01,10.08,1.02
		c5.12,1.62,7.85,5.41,8.04,11.04c2.44-0.33,4.92-0.34,7.34-0.88l0,0l0,0c-0.62-9.57-7.98-17.4-17.52-18.62
		c-5.22-0.67-10.46-0.14-15.69-0.31c-0.89-0.03-0.82,0.57-0.82,1.14c0,12.26,0.01,24.53-0.02,36.79
		C149.46,78.82,149.8,79.03,150.7,79.02z"/>
	<path class="st16" d="M315.92,42.51c-0.01,11.69-0.01,23.39,0,35.08c0,0.66-0.28,1.46,0.93,1.43c4.43-0.09,8.87,0.19,13.29-0.15
		c8.08-0.63,12.66-6.22,11.4-13.78c-1.31-0.6-2.69-0.24-4.04-0.3c-1.24-0.06-2.49-0.01-3.75-0.17c0.56-0.44,1.11-0.81,1.84-0.62
		c0.08-0.01,0.16-0.02,0.24-0.04c0.54-0.4,1.14-0.29,1.74-0.23c0.45-0.02,0.91-0.04,1.36-0.06c0.09-0.05,0.18-0.08,0.27-0.1
		c0.55-0.19,1.14-0.09,1.7-0.21c-0.46-1.87-1.52-3.33-3.04-4.48c-0.69-0.01-1.15-0.48-1.33-1.02c-0.17-0.5,0.34-0.77,0.79-0.93
		c1.33-1.26,1.97-2.87,2.18-4.63c0.7-5.88-3.08-10.9-9.09-12.04c-3.92-0.74-7.9-0.24-11.85-0.32
		C315.51,39.88,315.92,39.52,315.92,42.51z M323.66,51.38c0-0.61,0-1.23,0-1.84c0-2.1,0-2.1,2.15-2.02
		c1.18,0.05,2.36,0.08,3.47,0.56c1.35,0.59,2.27,1.53,2.31,3.08c0.04,1.49-0.57,2.62-1.92,3.35c-1.7,0.92-3.56,0.77-5.38,0.84
		c-0.59,0.02-0.64-0.39-0.63-0.87C323.67,53.45,323.66,52.41,323.66,51.38z M323.66,63.26c0-0.38-0.03-0.85,0.49-0.86
		c3.02-0.07,6.17-0.7,8.65,1.83l0,0l0,0c0.72,0.15,0.51,0.71,0.51,1.17c0.73,3.92-0.86,5.85-4.84,5.86c-1.27,0-2.54-0.03-3.82,0.01
		c-0.7,0.02-1.02-0.15-1-0.94C323.69,67.97,323.66,65.61,323.66,63.26z"/>
	<path class="st16" d="M192.97,59.27c1.29-0.05,2.58-0.01,4.15-0.01c-0.69,0.91-1.41,1.1-2.13,1.18c-0.7,0.08-1.42,0.13-2.12,0.06
		c-0.77-0.08-0.96,0.18-0.96,0.93c0.03,5.52,0.03,11.04,0,16.56c0,0.83,0.31,1.05,1.08,1.03c1.79-0.04,3.59-0.07,5.38,0.01
		c1.08,0.05,1.35-0.33,1.33-1.37c-0.06-4.48,0.02-8.97-0.05-13.45c-0.02-1.17,0.36-1.41,1.45-1.4c4.95,0.06,9.91,0.07,14.86-0.01
		c1.24-0.02,1.47,0.42,1.46,1.54c-0.06,4.48,0,8.96-0.04,13.45c-0.01,0.91,0.22,1.27,1.18,1.24c1.84-0.06,3.68-0.04,5.52-0.01
		c0.75,0.02,1.1-0.16,1.1-1.02c-0.02-12.31-0.02-24.63,0-36.94c0-0.98-0.39-1.19-1.27-1.15c-1.7,0.06-3.4,0.08-5.09-0.01
		c-1.13-0.06-1.45,0.33-1.44,1.44c0.06,4.15,0,8.3,0.04,12.46c0.01,0.96-0.23,1.31-1.26,1.3c-5.05-0.05-10.1-0.05-15.15,0
		c-1.06,0.01-1.37-0.28-1.35-1.35c0.06-4.2,0.01-8.4,0.04-12.6c0.01-0.9-0.24-1.27-1.2-1.24c-1.84,0.06-3.68,0.05-5.52,0
		c-0.82-0.02-1.06,0.29-1.06,1.07c0.02,5.76,0.03,11.51-0.01,17.27C191.91,59.06,192.19,59.3,192.97,59.27z"/>
	<path class="st16" d="M277.31,59.42c0,6.09,0.03,12.17-0.02,18.26c-0.01,1.05,0.25,1.41,1.33,1.36c1.69-0.09,3.4-0.1,5.09,0
		c1.16,0.07,1.41-0.34,1.4-1.44c-0.06-4.34-0.03-8.68-0.02-13.02c0-0.41-0.27-1.1,0.44-1.14c1.07-0.05,2.11-0.32,2.99,0.91
		c3.4,4.7,6.95,9.29,10.44,13.92c0.29,0.38,0.54,0.75,1.11,0.75c2.64-0.02,5.28,0,7.93-0.01c0.68,0,0.85-0.32,0.46-0.89
		c-0.61-0.89-1.19-1.82-1.85-2.68c-3.51-4.56-7.03-9.1-10.58-13.63c-0.58-0.74-0.61-1.1,0.33-1.54c1.44-0.67,2.5-1.83,3.26-3.24
		c3.52-6.48-1.01-15.62-8.3-16.81c-4.13-0.67-8.29-0.1-12.43-0.32c-1.23-0.07-1.61,0.26-1.6,1.54
		C277.35,47.43,277.31,53.42,277.31,59.42z M285.08,51.81c0-0.74,0-1.26,0-1.78c0-2.5,0-2.5,2.56-2.44
		c2.73,0.06,4.21,0.92,4.87,2.82c0.66,1.9-0.08,3.72-1.89,4.63c-0.17,0.08-0.34,0.17-0.51,0.23c-1.46,0.46-3.16,0.94-4.42,0.28
		C284.21,54.77,285.49,52.91,285.08,51.81z"/>
	<path class="st16" d="M470.53,72.87c-2.87-3.74-5.79-7.44-8.73-11.12c-0.56-0.7-0.57-1.01,0.3-1.42c1.07-0.5,1.93-1.32,2.67-2.27
		c4.57-5.94,0.34-16.32-7.27-17.76c-4.49-0.85-9.03-0.19-13.55-0.37c-0.86-0.03-0.81,0.59-0.81,1.17c0,2.03,0,4.06,0,6.08
		c0,10.14,0.02,20.28-0.03,30.42c0,1.11,0.25,1.51,1.41,1.44c1.6-0.1,3.21-0.1,4.81,0c1.21,0.08,1.63-0.24,1.6-1.54
		c-0.09-4.29-0.04-8.58-0.03-12.87c0-0.43-0.23-1.14,0.41-1.18c1.06-0.06,2.15-0.39,3,0.87c1.63,2.42,3.46,4.71,5.23,7.04
		c1.47,1.93,1.49,1.92-0.86,2.45c-0.06,0.01-0.1,0.13-0.18,0.23c0.43,0.28,1.02,0.25,1.36,0.69c0.03,0.02,0.05,0.04,0.07,0.07
		c0.16,0.16,0.31,0.32,0.47,0.48l0,0c0.95-1.54,0.95-1.54,1.99-0.17c0.8,1.05,1.59,2.1,2.38,3.16c0.32,0.43,0.64,0.76,1.26,0.75
		c2.55-0.03,5.09-0.02,7.64-0.01c1.08,0.01,0.94-0.41,0.46-1.08C472.92,76.25,471.79,74.51,470.53,72.87z M456.55,54.97
		c-1.57,0.81-3.26,0.82-4.96,0.69c-0.66-0.05-0.71-0.48-0.71-0.99c0.01-1.04,0-2.07,0-3.11c0-0.47,0-0.94,0-1.41
		c0-2.66,0-2.66,2.73-2.57c2.75,0.1,4.26,1.08,4.8,3.11C458.89,52.46,458.17,54.14,456.55,54.97z"/>
	<path class="st16" d="M216.82,133.5c2.31-0.04,4.62-0.01,6.93-0.02c0.4,0,0.94,0.19,1.15-0.28c0.2-0.44-0.26-0.77-0.49-1.1
		c-1.54-2.14-3.06-4.3-4.67-6.39c-2.38-3.1-4.82-6.17-7.27-9.21c-0.66-0.82-0.82-1.31,0.32-1.85c1.39-0.66,2.4-1.82,3.13-3.17
		c3.45-6.39-0.92-15.39-8.09-16.71c-4.26-0.79-8.55-0.29-12.82-0.27c-1.14,0-1.4,0.47-1.39,1.55c0.05,5.99,0.02,11.98,0.02,17.97
		c0,6.04,0.03,12.07-0.03,18.11c-0.01,1.16,0.36,1.45,1.44,1.4c1.65-0.08,3.3-0.08,4.95,0c1.12,0.06,1.43-0.31,1.41-1.43
		c-0.07-4.34-0.03-8.68-0.02-13.02c0-0.47-0.23-1.14,0.59-1.19c1.12-0.07,2.1-0.1,2.94,1.07c3.34,4.62,6.84,9.13,10.25,13.7
		C215.61,133.24,216.07,133.51,216.82,133.5z M206.43,109.74c-1.36,0.42-2.76,0.49-4.18,0.39c-0.69-0.05-0.89-0.33-0.87-0.96
		c0.03-1.03,0.01-2.07,0.01-3.1c0-0.47,0-0.94,0-1.41c0-2.65,0-2.65,2.7-2.58c2.76,0.07,4.23,1.01,4.79,3.06
		C209.41,107.09,208.34,109.14,206.43,109.74z"/>
	<path class="st16" d="M267.45,71.67c-3.88-10.1-7.77-20.19-11.62-30.3c-0.41-1.07-0.9-1.57-2.13-1.49
		c-1.74,0.12-3.49,0.08-5.23,0.01c-0.94-0.04-1.42,0.23-1.76,1.17c-1.25,3.5-2.61,6.96-3.93,10.44c-3.28,8.67-6.55,17.34-9.83,26.01
		c-0.56,1.48-0.56,1.48,0.97,1.48c2.03,0.01,4.06-0.03,6.08,0.02c0.77,0.02,1.18-0.22,1.45-0.99c0.69-1.95,1.52-3.85,2.21-5.8
		c0.28-0.8,0.68-1.08,1.53-1.06c3.11,0.05,6.22,0.01,9.34,0.02c1.41,0.01,3.06-0.38,4.15,0.22c1.12,0.62,1.15,2.47,1.74,3.75
		c0.55,1.19,0.73,2.76,1.61,3.55c0.97,0.87,2.61,0.13,3.74,0.3c1.3,0,2.39-0.02,3.47,0.01c0.84,0.02,0.95-0.29,0.65-1.03
		C269.05,75.89,268.26,73.78,267.45,71.67z M255.24,63.43c-2.64-0.01-5.28-0.01-7.92-0.01c-0.5,0-0.82-0.04-0.55-0.72
		c1.21-3.06,2.38-6.14,3.57-9.21l0,0l0,0c0.06-1.01,0.65-1.84,0.91-2.8c0.65,0.05,0.78,0.64,0.59,0.88c-0.65,0.82,0.07,1,0.49,1.35
		c1.13,3.24,2.25,6.49,3.4,9.72C255.92,63.21,255.88,63.44,255.24,63.43z"/>
	<path class="st16" d="M45.79,79.49c4.89,0.54,9.57-0.35,13.96-2.63c0.48-0.25,1.13-0.39,1.13-1.12c0.01-3.04,0-6.09,0-9.56
		c-1.82,1.95-3.57,3.32-5.61,4.28c0.03,0.67,0.55,0.49,0.94,0.55c0.54,0.08,1.14-0.12,1.62,0.31c0.69,0.13,1.37,0.26,2.43,0.45
		c-1.61,0.48-2.87,0.33-4.13,0.13l0,0l0,0c-3.62-0.11-7.27,0.32-10.87-0.27c-5.21-0.85-9.5-5.15-10.1-10.08
		c-0.7-5.73,2.18-11.35,7.18-13.35c6.35-2.54,12.13-1.12,17.34,3.1c0.34,0.27,0.54,0.97,1.07,0.7c0.44-0.23,0.2-0.86,0.2-1.31
		c0.02-2.22-0.04-4.44,0.03-6.65c0.03-0.97-0.27-1.58-1.11-2.06c-2.42-1.39-5.08-2.01-7.8-2.35c-7.6-0.96-14.46,0.49-19.87,6.38
		c-4.43,4.83-6.33,10.51-4.94,16.95C29.33,72.57,35.99,78.41,45.79,79.49z"/>
	<path class="st16" d="M51.35,123.15c-0.17-1.09-1.38-1.55-1.43-2.62c-1.07-1.43-2.11-2.88-3.21-4.29
		c-0.51-0.66-0.61-1.04,0.29-1.46c1.35-0.63,2.39-1.69,3.14-2.97c3.73-6.41-0.5-15.62-7.8-17.03c-4.45-0.86-8.94-0.18-13.41-0.38
		c-0.79-0.04-0.92,0.44-0.92,1.09c0.01,12.31,0.01,24.63-0.01,36.94c0,0.8,0.25,1.09,1.05,1.07c1.89-0.04,3.78-0.05,5.66,0
		c0.92,0.03,1.1-0.38,1.08-1.19c-0.05-1.98-0.07-3.97,0.01-5.94c0.04-1.04-0.34-1.29-1.3-1.27c-1.41,0.03-2.85,0.21-4.21-0.43
		c1.39-0.29,2.78-0.53,4.18-0.62c0.98-0.06,1.44-0.32,1.34-1.42c-0.11-1.26-0.03-2.55-0.03-3.82c0-0.38-0.06-0.87,0.44-0.89
		c1.03-0.04,2.12-0.42,2.91,0.78c0.9,1.37,2,2.61,3.01,3.91c0.69,0.43,1.43,0.56,2.25,0.55C46.69,123.12,48.98,123.15,51.35,123.15z
		 M40.68,109.79c-1.28,0.39-2.59,0.41-3.92,0.35c-0.73-0.03-1-0.3-0.97-1.03c0.04-1.04,0.01-2.08,0.01-3.11
		c0-0.9,0.07-1.8-0.02-2.69c-0.11-1.05,0.35-1.29,1.29-1.24c1.22,0.06,2.45-0.02,3.64,0.37c1.73,0.56,2.74,1.89,2.75,3.68
		C43.45,107.86,42.4,109.27,40.68,109.79z"/>
	<path class="st16" d="M365.32,132.9c0.68-0.15,1.33-0.49,2.06-0.37l0,0l0,0c1.2-0.11,2.22-0.71,3.3-1.16
		c0.33-0.14,0.57-0.32,0.55-0.72c-0.07-1.5,0.52-3.25-0.26-4.41c-0.55-0.82-2.29-0.18-3.5-0.26c-0.42-0.03-0.85-0.03-1.27,0
		c-1.3,0.11-2.58-0.09-3.91,0.33c-6.42,2.06-13.83-0.18-16.82-6.88c-3.27-7.33,0.34-17.55,11.31-18.55
		c4.64-0.42,8.97,0.75,13.09,2.82c1.36,0.68,1.35,0.69,1.36-0.88c0-1.79-0.07-3.59,0.03-5.38c0.05-1.03-0.31-1.51-1.26-1.85
		c-6.09-2.19-12.25-2.39-18.49-0.78c-12.71,3.27-18.91,17.69-12.37,28.86c2.39,4.08,5.61,7.31,10.25,8.84
		c2.28,0.22,4.43,1.06,6.77,1.19C359.28,133.87,362.3,133.56,365.32,132.9z"/>
	<path class="st16" d="M398.92,62.54c-0.62-0.01-0.99,0.15-0.77,0.86c0.8,0.8,0.46,1.88,0.68,2.82c1.58,6.84,7.65,12.3,14.98,13.42
		c9.54,1.46,18.94-5.69,19.63-15.32c0.56-7.8,0.1-15.64,0.18-23.47c0.01-0.77-0.37-0.95-1.06-0.94c-1.65,0.03-3.31,0.1-4.95-0.02
		c-1.3-0.09-1.56,0.39-1.55,1.6c0.08,6.69,0.07,13.39,0.1,20.08c0.01,2.21-0.43,4.31-1.6,6.21c-2.28,3.73-6.71,5.36-11.36,4.19
		c-3.96-0.99-6.64-4.67-6.86-9.41c-1.42,0-2.83,0-4.25,0C401.04,62.55,399.98,62.56,398.92,62.54z"/>
	<path class="st16" d="M386.67,62.26c0.01,0.02,0.01,0.03,0.01,0.04c0.01,0,0.01,0.01,0.02,0.01
		C386.79,62.21,386.57,62.12,386.67,62.26z"/>
	<path class="st16" d="M350.85,62.62c1.97-0.12,3.95-0.16,5.93-0.21c0.92-0.02,1.01-0.42,0.88-1.27
		c-1.39-9.22,7.83-16.58,16.56-13.29c4.24,1.6,8.55,6.12,8.02,12.98l0,0l0,0c-0.09,0.95,0.28,1.37,1.27,1.2
		c0.41-0.07,0.84-0.01,1.27-0.02c1.72,0,3.45,0,5.17,0c0.57-2.39,0.31-4.75-0.24-7.11c-2.47-10.47-12.52-17.18-23.17-15.45
		c-10.42,1.69-17.84,11.41-16.86,22.05C349.76,62.31,349.96,62.67,350.85,62.62z"/>
	<path class="st16" d="M66.88,120.66c-0.01,1.27,0.29,1.79,1.63,1.65c0.97-0.1,1.97,0.01,2.92-0.29c0.71-0.77,1.12-0.13,1.57,0.33
		c0.7-0.24,1.04-0.68,0.98-1.48c-0.07-1.03-0.02-2.07-0.02-3.1l0,0l0,0c0.17-0.87,0.87-0.56,1.37-0.56
		c3.72-0.02,7.44-0.04,11.17,0.01c0.91,0.01,1.17-0.18,1.09-1.15c-0.13-1.54-0.18-3.12,0.01-4.66c0.15-1.28-0.4-1.31-1.37-1.3
		c-3.58,0.04-7.16-0.05-10.74,0.05c-1.44,0.04-1.94-0.43-1.83-1.85c0.11-1.5,0.02-3.01,0.02-4.52c0-1.86,0-1.87,1.8-1.87
		c5.18,0,10.37-0.02,15.55,0.02c1.02,0.01,1.53,0.05,1.41-1.37c-0.17-1.99-0.35-4.04,0.22-6.03c-0.24-0.33-0.6-0.21-0.91-0.21
		c-7.94-0.01-15.88-0.01-23.82,0c-0.35,0-0.76-0.15-1.04,0.23C66.89,103.26,66.92,111.96,66.88,120.66z"/>
	<path class="st16" d="M119.01,62.85c-0.01,1.24-0.04,2.32,1.96,1.87c-0.6,0.76-1.04,1.39-0.03,1.8c0.95,0.3,1.58,0.99,2.15,1.77
		c-1.11-0.21-1.88-1.15-3.01-1.23l0,0l0,0c-0.9,0.35-1.06,1.08-1.06,1.95c0.02,2.92,0.04,5.85-0.01,8.77
		c-0.01,0.89,0.19,1.25,1.17,1.24c6.79-0.04,13.58-0.03,20.36-0.01c0.84,0,1.18-0.23,1.15-1.13c-0.06-1.79-0.06-3.58,0-5.37
		c0.03-1-0.35-1.3-1.33-1.29c-3.96,0.04-7.92-0.04-11.88,0.05c-1.35,0.03-1.72-0.33-1.71-1.7c0.06-9.33,0.01-18.67,0.06-28
		c0.01-1.25-0.25-1.8-1.62-1.69c-1.55,0.12-3.12,0.12-4.66,0c-1.32-0.1-1.55,0.42-1.54,1.61C119.06,48.62,119.05,55.74,119.01,62.85
		z"/>
	<path class="st16" d="M134.43,96.43c-0.56-0.25-1.08-0.59-1.65-0.8c-4.74-1.76-9.58-2.19-14.58-1.38
		c-11.65,1.88-19.24,13.83-15.89,25.02c0.27,0.89,0.63,1.19,1.55,1.2c2.07,0.01,4.14-0.37,6.21-0.05c1.05,0.16,1.22-0.12,0.75-1.12
		c-2.47-5.32-0.88-11.65,3.76-15.24c4.56-3.52,13.03-3.43,17.69,0.14c0.7,0.54,0.47,0.74-0.13,1.04c-0.52,0.26-1.01,0.58-1.52,0.88
		c0.94,0.37,1.86,0.53,2.48-0.24c0.57-0.72,0.89-0.37,1.31,0.07c0.25,0.26,0.44,0.63,0.91,0.64c0.33-0.35,0.19-0.79,0.2-1.19
		c0.01-2.31-0.04-4.62,0.03-6.93C135.6,97.49,135.31,96.84,134.43,96.43z"/>
	<path class="st16" d="M407.15,117.68c-0.45-0.09-0.94-0.16-1.39-0.1c-1.09,0.13-1.75-0.19-2.11-1.33
		c-0.27-0.89-0.85-1.67-1.44-2.42c-1.91-2.42-4.65-3.45-7.4-4.45c-1.77-0.65-3.56-1.22-5.19-2.19c-1.4-0.84-2.04-2.31-1.69-4.02
		c0.31-1.47,1.36-2.14,2.76-2.46c2.02-0.47,3.42,0.44,4.42,2.01c0.62,0.97,1.14,1,2.01,0.39c1.32-0.91,2.67-1.78,4.05-2.58
		c0.84-0.49,0.81-0.95,0.3-1.68c-2.75-3.97-6.6-5.7-11.32-5.28c-7.08,0.62-11.55,7.8-8.95,14.36c1.52,3.83,4.52,6.19,8.39,7.45
		c2.65,0.86,5.2,1.88,7.03,4.13c1.41,0.71,0.98,2.04,0.88,3.12c-0.1,1.12,0.21,1.45,1.26,1.39c1.24-0.07,2.52,0.2,3.64-0.56l0,0l0,0
		c0.52-0.53,0.96-1.34,1.59-1.53c1.08-0.33,0.93-0.93,0.81-1.7c-0.05-0.32-0.4-0.91,0.13-0.94c0.78-0.05,1.25-0.86,2.08-0.67
		c0.24,0.06,0.62,0.1,0.64-0.32C407.68,117.97,407.42,117.74,407.15,117.68z"/>
	<path class="st16" d="M386.82,62.39c0.04,0.02,0.08,0.04,0.11,0.06c-0.83,0.24-1.61,0.12-2.39,0.11l0,0
		c-0.96,0.12-1.98-0.04-2.85,0.56l0,0c-0.06,0.18-0.13,0.35-0.18,0.53c-0.49,1.91-1.56,3.01-3.67,3.19
		c-1.78,0.15-3.53,0.65-5.56,1.05c1.11,0.74,1.91,1.9,3.01,0.8c1.02-1.02,2.07-0.68,3.43-0.63c-1.4,1.54-2.9,2.48-4.58,3.05
		c-1.47,0.5-2.97,1.13-4.59,0.55c-0.12-0.21-0.24-0.43-0.35-0.64c-0.65,1-1.57,0.66-2.4,0.43c-3.27-0.91-5.89-2.76-7.54-5.75
		c-0.55-0.99-1.17-1.28-2.23-1.22c-1.83,0.11-3.67,0.15-5.51,0.12c-1.07-0.02-1.32,0.26-0.93,1.3c2.97,7.87,8.53,12.78,16.89,13.79
		c8.62,1.04,15.29-2.57,19.94-9.89c0.55-0.86,0.85-1.89,2.2-1.79c0.32,0.02,0.74-0.26,0.82-0.67c0.1-0.48-0.33-0.49-0.63-0.57
		c-0.77-0.21-0.72-0.68-0.51-1.31c0.38-1.12,0.63-2.26,0.63-3.45C388.97,62.68,387.88,62.39,386.82,62.39z"/>
	<path class="st16" d="M386.68,62.31c0-0.01,0-0.03-0.01-0.04c-0.1-0.14,0.12-0.05,0.03,0.05c0.04,0.02,0.09,0.05,0.13,0.07
		c1.06,0,2.15,0.3,3.13-0.38c-1.72,0-3.45,0-5.17,0C385.33,62.43,386.04,62.05,386.68,62.31z"/>
	<path class="st16" d="M282.51,95.52c0.08-0.85-0.24-1.17-1.12-1.14c-1.79,0.06-3.58,0.07-5.37,0c-0.98-0.04-1.32,0.25-1.3,1.27
		c0.06,2.64-0.06,5.28,0.05,7.92c0.07,1.63-0.16,2.96-1.78,3.72c-0.04,0.02-0.01,0.16-0.02,0.24c0.59,0.39,1.06-0.19,1.77-0.2
		c0,0.43,0,0.76,0,1.08c0,7.92,0.02,15.84-0.03,23.76c-0.01,1.08,0.29,1.39,1.35,1.34c1.69-0.08,3.4-0.1,5.09,0
		c1.18,0.07,1.39-0.38,1.38-1.46c-0.04-10.51-0.03-21.03,0-31.54c0-0.66-0.54-1.67,0.82-1.86c0.34-0.05,0.11-0.51-0.09-0.67
		C282.48,97.31,282.42,96.43,282.51,95.52z"/>
	<path class="st16" d="M135.06,120.79c-0.3,0.41-0.55,0.87-0.9,1.22c-5.09,5.08-14.28,5.95-19.61,1.86
		c-0.93-0.71-1.66-1.9-3.14-1.25c-0.11,0.05-0.41-0.08-0.48-0.21c-0.57-0.94-1.45-0.69-2.28-0.61c-1.26,0.13-2.52,0.35-3.79,0.4
		c-1.2,0.04-1.33,0.33-0.73,1.39c6.75,11.99,21.4,12.57,30.66,7.54c0.41-0.22,0.78-0.48,0.77-1.07c-0.02-2.96-0.01-5.92-0.01-8.88
		C135.38,121.05,135.22,120.92,135.06,120.79z"/>
	<path class="st16" d="M398.12,124.26c-0.06-0.01-0.11-0.02-0.17-0.02c-0.87-0.11-0.76-0.93-0.64-1.6c0.21-1.14,0.25-2.24-0.68-3.14
		c0.63,1.3,0.94,2.6,0.15,3.95C396.78,124.55,397.55,124.22,398.12,124.26z"/>
	<path class="st16" d="M398.5,124.31c-0.1-0.01-0.19-0.03-0.29-0.04c0.07,0.01,0.13,0.02,0.19,0.05
		C398.43,124.32,398.46,124.32,398.5,124.31z"/>
	<path class="st16" d="M399.95,124.45c0.16,0.06,0.32,0.14,0.48,0.25c-1.66,0.68-3.29,0.12-4.81,0.47l0,0
		c-1.61,1.62-3.47,1.95-5.56,1.05c-0.3-0.13-0.63-0.24-0.95-0.24c-2.83-0.02-5.65,0-8.48-0.02c-0.95-0.01-0.87,0.37-0.53,1.03
		c0.69,1.35,1.52,2.61,2.65,3.62c0.88,0.78,1.85,1.45,2.97,2.31c-1.6,0.03-2.94,0.15-4.27,0.41c-3.05,0.59-6.09,1.29-9.23,0.85
		c-0.13-0.02-0.29,0.19-0.43,0.29c0.11,0.69,0.65,0.53,1.09,0.54c0.79,0.02,1.58,0.03,2.37,0.04c-0.34,0.05-0.69,0.08-1.03,0.12
		c0.34-0.01,0.69-0.04,1.03-0.12c4.22-0.04,8.41-0.45,12.61-0.79c2.28-0.18,4.6,0.27,6.86-0.38c1.4-0.02,2.45-1,3.71-1.39l0,0l0,0
		c2.53-1.51,4.44-3.59,5.68-6.27c0.38-0.83,0.34-1.36-0.8-1.26c-0.57,0.05-1.17,0.01-1.75-0.28c0.33-0.49,0.59-0.87,0.84-1.26
		C401.68,124.26,400.83,124.46,399.95,124.45z"/>
	<path class="st16" d="M398.77,124.01c-1.05,0.06-1.36-0.28-1.26-1.39c0.1-1.07,0.53-2.4-0.88-3.12c0.93,0.89,0.89,1.99,0.68,3.14
		c-0.12,0.67-0.23,1.49,0.64,1.6c0.06,0.01,0.11,0.02,0.17,0.02c0.03,0,0.06,0.01,0.09,0.01c0.1,0.01,0.19,0.03,0.29,0.04
		c0.46-0.05,0.93-0.07,1.45,0.14c0.88,0.01,1.73-0.19,2.46-1l0,0C401.29,124.21,400.01,123.94,398.77,124.01z"/>
	<path class="st16" d="M398.92,62.21c0.04,0,0.07-0.01,0.11-0.01c0.62-0.06,1.25-0.06,1.88-0.05c1.8-0.16,3.6-0.33,5.4-0.49l0,0
		c0.02-6.92,0.04-13.84,0.08-20.76c0.01-0.86-0.37-1.01-1.11-0.99c-1.74,0.04-3.49,0.08-5.22-0.01c-1.12-0.06-1.44,0.28-1.43,1.41
		c0.05,6.31,0.03,12.62,0.02,18.93c0,0.49,0.2,1.04-0.22,1.48C398.52,62.06,398.71,62.17,398.92,62.21z"/>
	<path class="st16" d="M399.79,62.25c0.37-0.03,0.75-0.07,1.12-0.1c-0.63-0.01-1.26-0.01-1.88,0.05c-0.04,0-0.07,0.01-0.11,0.01
		C399.2,62.26,399.52,62.19,399.79,62.25z"/>
	<path class="st16" d="M364.45,125.17c1.92-0.19,3.84-0.32,5.77-0.44c0.75-0.05,1.06-0.35,1.03-1.15c-0.05-1.98-0.02-3.96-0.02-5.94
		c0-2.03-0.02-4.05,0.01-6.08c0.01-0.64-0.14-0.93-0.85-0.93c-4.01,0.02-8.02,0.02-12.02,0c-0.65,0-0.92,0.17-0.91,0.88
		c0.04,1.98,0.05,3.96,0,5.94c-0.02,0.78,0.29,0.96,0.99,0.94c1.37-0.04,2.74,0.02,4.1-0.03c0.75-0.03,0.98,0.23,0.96,0.98
		c-0.05,1.65,0.02,3.3-0.04,4.95C363.46,125.07,363.72,125.24,364.45,125.17z"/>
	<path class="st16" d="M353.68,87.48c0.27-0.48,0.86-0.14,1.2-0.45c-0.01-0.37-0.47-0.58-0.35-0.98c-0.35-0.84-0.12-1.55,0.47-2.19
		c0.26-0.28,0.34-0.6-0.06-0.81c-0.42-0.22-0.4,0.23-0.54,0.42c-0.67,0.89-2.86,1.47-3.92,1.06c-0.37-0.15-0.73-0.36-0.75-0.76
		c-0.04-0.8-0.39-0.75-0.96-0.5c-0.86,0.38-1.75,0.32-2.63,0.1c-1.05-0.26-2.08-0.59-3.13-0.85c-1.54-0.37-3.12-0.56-4.46,0.51
		c-1.23,0.99-2.42,0.93-3.64,0.14c-1.13-0.73-1.94-0.51-2.53,0.66c-0.2,0.39-0.34,0.79-0.93,0.46c-1.97-1.09-4.12-0.8-6.23-0.74
		c-1.8,0.05-3.6,0.09-5.23-0.83c-0.73-0.41-1.01,0.14-1.41,0.48c-0.03,0.38-0.76,0.32-0.54,0.86c1.65,0.33,3.07,1.15,4.43,2.08
		c0.48,0.33,0.95,0.55,1.56,0.47c5.61-0.67,11.16,0.14,16.73,0.73C345.04,87.8,349.36,88.24,353.68,87.48z"/>
	<path class="st16" d="M44.13,123.45c-0.83,0.02-1.46-0.22-1.98-0.83c0.24,0.69,0.68,1.03,1.45,1.03c1.53-0.01,3.06,0.05,4.58,0.08
		c0.32-0.11,0.65-0.16,0.98-0.19C47.48,123.38,45.81,123.4,44.13,123.45z"/>
	<path class="st16" d="M49.92,120.53c0.38,0.71,0.91,1.31,1.4,1.93c0.53,0.67,0.2,0.9-0.43,1.02c-0.21,0.04-0.42,0.05-0.64,0.06
		c0.4,0.04,0.79,0.1,1.2,0.18c-1.66,0.82-3.45,0.88-5.25,0.84l0,0c-0.77,0.11-1.58,0.02-2.39,0.42c2.03,2.69,4.02,5.3,5.99,7.93
		c0.31,0.42,0.69,0.58,1.2,0.58c2.49-0.01,4.99-0.01,7.48,0c0.85,0,1.15-0.23,0.59-1.05C56.29,128.26,53.19,124.33,49.92,120.53z"/>
	<path class="st16" d="M49.16,123.52c0.37-0.03,0.73-0.02,1.1,0.02c0.21-0.01,0.43-0.02,0.64-0.06c0.62-0.12,0.96-0.35,0.43-1.02
		c-0.49-0.62-1.03-1.22-1.4-1.93c0.05,1.07,1.26,1.53,1.43,2.62c-2.37,0-4.66-0.03-6.95,0.01c-0.82,0.02-1.56-0.12-2.25-0.55
		c0.52,0.61,1.15,0.85,1.98,0.83C45.81,123.4,47.48,123.38,49.16,123.52z"/>
	<path class="st16" d="M133.75,90.89c-0.42,0.06-0.84,0.08-1.26,0.11C132.91,91.02,133.34,91.08,133.75,90.89z"/>
	<path class="st16" d="M97.34,90.85c11.52,0.01,23.05-0.01,34.57-0.01c0.61,0,1.22,0.04,1.83,0.05c4.81,0.15,9.59-0.32,14.38-0.59
		c0.31-0.02,0.74,0.05,0.81-0.37c0.06-0.37-0.36-0.51-0.6-0.72c-0.37-0.32-0.82-0.11-1.22-0.06c-7.03,0.81-14.09,0.93-21.15,0.88
		c-6.6-0.04-13.19-0.04-19.79,0c-3.48,0.02-6.96,0.12-10.42,0.53C96.2,91.09,96.81,90.85,97.34,90.85z"/>
	<path class="st16" d="M70.03,93.18c2.52-0.32,5.05-0.61,7.58-0.91c0.86-0.54,2.09,0.26,2.8-0.79l0,0
		c-0.19-0.01-0.41,0.03-0.56-0.05c-2.21-1.17-4.48-1.55-6.88-0.63c-0.3,0.11-0.65,0.06-0.98,0.1c-3.52,0.44-7.06,0.27-10.59,0.33
		c-1.89,0.03-3.78,0.14-5.55,0.91c0.48,0.12,0.95,0.14,1.42,0.11c3.79-0.24,7.54-0.05,11.24,0.87
		C69.01,93.24,69.51,93.25,70.03,93.18z"/>
	<path class="st16" d="M92.15,125.65c-5.46,0.06-10.92,0.04-16.39,0.01c-0.53,0-1.35,0.33-1.33-0.73c0.03-2.47-0.16-4.95,0.15-7.42
		c-0.07,0.03-0.14,0.06-0.2,0.08c-0.03,0.05-0.06,0.09-0.09,0.16c-0.11,1.06-0.04,2.13-0.05,3.19c-0.01,0.63-0.08,1.21-0.77,1.47
		c-0.17,0.01-0.35-0.01-0.52-0.05c-0.98,0.42-1.4,0.39-1.5-0.13c-0.15,0.05-0.3,0.12-0.45,0.25c-0.14,0.05-0.27,0.1-0.41,0.12
		c-3.58,0.54-3.85,0.31-3.85-3.25c0-7.76,0-15.53,0.01-23.29c0-0.51-0.13-1.04,0.13-1.52c-0.55,0.37-0.31,0.94-0.31,1.42
		c-0.01,12.04-0.01,24.07,0,36.11c0,0.41-0.3,0.96,0.32,1.24c0.01-3.01,0.03-6.03,0.01-9.04c-0.01-1.14,0.4-1.5,1.55-1.24
		c1.53,0.34,3.06-0.22,4.61-0.24c0.71-0.01,0.94,0.04,0.91,0.73c-0.01,0.23,0.02,0.47,0,0.71c-0.11,1.3,0.37,1.83,1.78,1.81
		c5.37-0.08,10.74,0,16.11-0.06c1.24-0.01,1.69,0.35,1.6,1.6c-0.1,1.45-0.1,2.92,0,4.38c0.09,1.27-0.57,1.34-1.55,1.34
		c-7.87-0.02-15.73-0.01-23.6-0.01c-0.47,0-0.94,0.03-1.41,0.05l0,0c0.12,0.07,0.23,0.19,0.35,0.19c8.52,0.01,17.04,0.01,25.57,0.02
		c0.77,0,0.93-0.4,0.92-1.08c-0.03-1.74-0.08-3.49,0.01-5.22C93.82,125.99,93.39,125.64,92.15,125.65z"/>
	<path class="st16" d="M66.75,96.08c-0.01,7.76-0.01,15.53-0.01,23.29c0,3.56,0.27,3.79,3.85,3.25c0.14-0.02,0.27-0.07,0.41-0.12
		c0.15-0.13,0.3-0.2,0.45-0.25c-0.01-0.07-0.02-0.14-0.02-0.22c-0.96,0.3-1.95,0.19-2.92,0.29c-1.34,0.14-1.63-0.38-1.63-1.65
		c0.04-8.7,0.01-17.4,0-26.1C66.61,95.04,66.75,95.57,66.75,96.08z"/>
	<path class="st16" d="M73.96,117.78c0,1.03-0.05,2.07,0.02,3.1c0.06,0.8-0.28,1.23-0.98,1.48c-0.02,0.01-0.04,0.01-0.06,0.02
		c0.17,0.04,0.35,0.06,0.52,0.05c0.69-0.26,0.77-0.84,0.77-1.47c0.01-1.06-0.06-2.13,0.05-3.19c0.03-0.06,0.06-0.11,0.09-0.16
		C74.24,117.66,74.1,117.72,73.96,117.78L73.96,117.78z"/>
	<path class="st16" d="M433.49,131.95c-2.54-0.04-5.08-0.01-7.61-0.15c-4.01-0.22-7.98-0.01-11.9,0.91
		c-0.55,0.13-0.96,0.18-1.39-0.28c-0.92-0.98-1.72-0.52-2.63,0.36c0.85,0.24,1.55,0.44,2.26,0.65c1.83,0.54,3.66,0.99,5.39-0.29
		c0.21-0.16,0.5-0.2,0.63,0.02c0.58,1.01,1.28,0.51,2.06,0.3c0.95-0.26,1.94-0.38,2.92-0.47c3.51-0.32,7.06,0.24,10.55-0.53
		C433.67,132.29,433.58,132.12,433.49,131.95L433.49,131.95z"/>
	<path class="st16" d="M363.14,135.4c-0.04-0.03-0.08-0.07-0.09-0.14c-0.54-0.36-1.31-0.46-1.6-1.28c2.05-0.4,4.1-0.5,5.93-1.45
		c-4.3,1.29-8.67,1.89-13.13,1.21c-1.65-0.25-3.27-0.71-4.87-1.23c3.46,1.6,7.16,1.71,10.89,1.8c-4.19,1.51-8.57,0.39-12.82,1.06
		c5.43,1.5,10.94,0.63,16.42,0.53C363.74,135.59,363.33,135.63,363.14,135.4z"/>
	<path class="st16" d="M367.39,132.53L367.39,132.53c-0.73-0.12-1.38,0.22-2.06,0.37c-3.03,0.66-6.05,0.97-9.18,0.8
		c-2.34-0.13-4.48-0.97-6.77-1.19c1.6,0.52,3.22,0.98,4.87,1.23C358.72,134.42,363.09,133.82,367.39,132.53z"/>
	<path class="st16" d="M53.06,91.67c-2.22-0.73-4.46-0.49-6.7-0.12c-2.87,0.48-5.69,1.43-8.65,0.89c-0.62-0.11-1.15-0.04-1.21,0.55
		c-0.08,0.78,0.68,0.44,1.04,0.47c5.62,0.46,11.17-0.18,16.82-1C53.97,91.91,53.51,91.82,53.06,91.67z"/>
	<path class="st16" d="M307.52,84.06c-1.19-0.56-2.46,0.03-3.67-0.26l0,0c-1.31,0.56-2.68,0.29-4.03,0.24c0,0,0,0,0.01,0
		c0,0,0,0-0.01,0c-2.79,0.12-5.58,0.24-8.37,0.36c-2,0.17-4.01,0.35-6.01,0.52c-1.4,0.12-2.79,0.23-4.27,0.35
		c0.53,0.39,1.18-0.04,1.6,0.41l0,0c4.08-0.03,8.16-0.15,12.24-0.07C299.27,85.69,303.4,84.95,307.52,84.06z"/>
	<path class="st16" d="M92.73,101.42c0.08,0.81-0.54,0.62-0.96,0.62c-2.07,0.02-4.15,0.01-6.22,0.01c-3.44,0-6.89,0.03-10.33-0.02
		c-1.08-0.02-1.43,0.43-1.42,1.41c0.02,1.74,0.04,3.49-0.01,5.23c-0.03,0.98,0.35,1.33,1.33,1.32c3.87-0.03,7.73,0.02,11.6-0.04
		c0.94-0.01,1.18,0.25,1.13,1.17c-0.09,1.69-0.11,3.4,0.01,5.09c0.07,1.01-0.33,1.14-1.18,1.13c-3.68-0.03-7.36-0.02-11.03,0
		c-0.38,0-0.85-0.17-1.16,0.13c0.03,0.01,0.06,0.01,0.1,0.04c4.05,0,8.11-0.03,12.16,0.02c1.02,0.01,1.44-0.22,1.38-1.32
		c-0.09-1.64-0.1-3.3,0-4.95c0.07-1.15-0.24-1.54-1.46-1.52c-3.82,0.08-7.63,0-11.45,0.05c-0.95,0.01-1.22-0.28-1.17-1.2
		c0.08-1.6,0.09-3.21,0-4.8c-0.06-1.14,0.24-1.54,1.47-1.53c5.32,0.07,10.65,0.01,15.98,0.05c1.07,0.01,1.58-0.24,1.47-1.41
		c-0.09-0.98,0.04-1.98-0.04-2.97c-0.09-1.14,0.34-2.31-0.27-3.41C92.72,96.82,92.52,99.12,92.73,101.42z"/>
	<path class="st16" d="M92.43,100.56c0.12,1.42-0.4,1.38-1.41,1.37c-5.18-0.03-10.37-0.02-15.55-0.02c-1.8,0-1.8,0-1.8,1.87
		c0,1.51,0.08,3.02-0.02,4.52c-0.1,1.43,0.39,1.89,1.83,1.85c3.58-0.09,7.16-0.01,10.74-0.05c0.97-0.01,1.52,0.02,1.37,1.3
		c-0.18,1.53-0.14,3.11-0.01,4.66c0.08,0.97-0.18,1.16-1.09,1.15c-3.72-0.05-7.44-0.03-11.17-0.01c-0.5,0-1.2-0.31-1.37,0.56l0,0
		c0.15-0.17,0.26-0.42,0.53-0.3c0.31-0.3,0.78-0.12,1.16-0.13c3.68-0.02,7.36-0.03,11.03,0c0.85,0.01,1.25-0.11,1.18-1.13
		c-0.11-1.69-0.09-3.4-0.01-5.09c0.05-0.92-0.19-1.18-1.13-1.17c-3.87,0.05-7.73,0-11.6,0.04c-0.97,0.01-1.36-0.34-1.33-1.32
		c0.05-1.74,0.03-3.49,0.01-5.23c-0.01-0.99,0.34-1.43,1.42-1.41c3.44,0.05,6.88,0.02,10.33,0.02c2.07,0,4.15,0.01,6.22-0.01
		c0.42,0,1.03,0.18,0.96-0.62c-0.21-2.3-0.01-4.6-0.08-6.89C92.08,96.52,92.26,98.57,92.43,100.56z"/>
	<path class="st16" d="M74.38,117.6c0.07-0.03,0.14-0.06,0.2-0.08c-0.04-0.03-0.07-0.03-0.1-0.04
		C74.45,117.51,74.41,117.55,74.38,117.6z"/>
	<path class="st16" d="M74.49,117.48c-0.27-0.12-0.38,0.14-0.53,0.3c0.14-0.06,0.28-0.12,0.42-0.17
		C74.41,117.55,74.45,117.51,74.49,117.48z"/>
	<path class="st16" d="M337.87,58.87c-0.05-0.98,0.58-0.42,0.9-0.35c2.52,0.52,5.04,1.19,7.61,0.25c0.31-0.11,0.72-0.17,0.76-0.54
		c0.06-0.53-0.49-0.5-0.79-0.6c-2.8-0.95-5.61-0.91-8.4,0.08c-0.29,0.1-0.56,0.51-0.87,0.18c-0.38-0.4,0.29-0.61,0.26-0.97
		C336.03,57.98,337.43,58.3,337.87,58.87z"/>
	<path class="st16" d="M336.54,57.85c0.18,0.54,0.64,1.01,1.33,1.02c-0.45-0.58-1.85-0.89-0.54-1.95
		C336.88,57.08,336.37,57.35,336.54,57.85z"/>
	<path class="st16" d="M227.17,142.14c-0.1,0.04-0.19,0.06-0.29,0.09C226.98,142.2,227.08,142.18,227.17,142.14z"/>
	<path class="st16" d="M238.77,140.79c-2.43-0.36-4.78,0.09-7.13-0.11l0,0l0,0c-2.37,0.16-4.74,0.33-7.06,0.88
		c-1.27,0.64-2.63,0.18-3.94,0.32c-0.48,0.05-1.07-0.16-1.2,0.6l0,0l0,0c0.42,0.52,0.96,0.25,1.46,0.23
		c0.93-0.58,1.93-0.31,2.92-0.26c-0.13,0.03-0.26,0.06-0.39,0.08c0.13-0.02,0.26-0.04,0.39-0.08c0.35-0.02,0.69-0.05,1.04-0.07
		c0.73-0.46,1.53-0.28,2.31-0.23c3.18-0.3,6.37-0.6,9.55-0.9c0.19-0.09,0.39-0.12,0.6-0.13
		C237.78,141.01,238.26,140.9,238.77,140.79z"/>
	<path class="st16" d="M199.58,141.73c-0.06-0.03-0.12-0.03-0.18-0.01c-3.85,0.35-7.7,0.08-11.55,0.15
		c-0.42,0.01-0.85-0.01-1.27,0.01c-0.39,0.01-0.27,0.27-0.21,0.49l0,0l0,0c0.21,0.09,0.42,0.24,0.64,0.25
		c4.12,0.27,8.25,0.6,12.35-0.23C199.44,142.17,199.51,141.95,199.58,141.73L199.58,141.73z"/>
	<path class="st16" d="M125.44,91.14c2.34-0.04,4.7,0.06,7.05-0.13c-0.04,0-0.09,0-0.13,0c-11.73,0.01-23.46,0.01-35.19-0.02
		c-0.45,0-1.17,0.48-1.41-0.42c-0.38,0.01-0.75,0.02-1.13,0.03c-0.09,0.09-0.18,0.2-0.29,0.25c-0.17,0.08-0.37,0.11-0.55,0.16
		c0.18,0.09,0.37,0.18,0.55,0.27c4.1-0.07,8.19-0.21,12.29-0.21C112.9,91.06,119.17,91.24,125.44,91.14z"/>
	<path class="st16" d="M97.16,90.98c11.73,0.03,23.46,0.03,35.19,0.02c0.04,0,0.09,0,0.13,0c0.42-0.03,0.84-0.06,1.26-0.11
		c-0.61-0.02-1.22-0.06-1.83-0.05c-11.52,0.01-23.05,0.02-34.57,0.01c-0.53,0-1.14,0.24-1.59-0.28
		C95.99,91.46,96.71,90.98,97.16,90.98z"/>
	<path class="st16" d="M293.62,96.3c1.98-0.41,3.98-0.71,5.98-1.07c0.32-0.06,0.88,0.13,0.87-0.43c-0.02-0.52-0.53-0.42-0.89-0.42
		c-1.98-0.01-3.96,0.03-5.94-0.02c-0.86-0.02-1.08,0.37-1.01,1.08C292.59,96.18,292.8,96.47,293.62,96.3z"/>
	<path class="st16" d="M372.31,135.16c-0.44,0.01-0.76-0.15-0.5-0.69c-0.4,0.14-0.59,0.87-1.24,0.23c-1.17-1.14-2.53-0.92-3.89-0.31
		c-1.15,0.52-2.33,0.93-3.63,0.85c0.02,0.07,0.06,0.1,0.09,0.14c0.24,0.17,0.85-0.13,0.74,0.5c3.45-0.2,6.92-0.3,10.36-0.72
		C373.59,135.2,372.95,135.15,372.31,135.16z"/>
	<path class="st16" d="M372.89,135.02c-0.44-0.01-0.98,0.15-1.09-0.54c-0.25,0.54,0.06,0.7,0.5,0.69c0.64-0.02,1.28,0.04,1.92,0.02
		c0.34-0.04,0.69-0.07,1.03-0.12C374.47,135.05,373.68,135.04,372.89,135.02z"/>
	<path class="st16" d="M363.14,135.4c0.19,0.23,0.6,0.19,0.74,0.5C363.99,135.27,363.38,135.57,363.14,135.4z"/>
	<path class="st16" d="M291.46,84.39c-2.73-0.33-5.42,0.37-8.14,0.26c-2.58-0.1-5.1,0.7-7.69,0.59c-0.17-0.01-0.37,0.08-0.41,0.42
		c2.52,0.4,5.04,0.58,7.56,0l0,0c-0.6-0.12-1.26,0.1-1.84-0.38C284.42,84.64,287.96,84.74,291.46,84.39z"/>
	<path class="st16" d="M281.18,85.26c1.48-0.12,2.88-0.23,4.27-0.35c2-0.17,4.01-0.34,6.01-0.52c-3.5,0.35-7.04,0.25-10.53,0.89
		c0.58,0.48,1.24,0.26,1.84,0.38C282.35,85.21,281.71,85.65,281.18,85.26z"/>
	<path class="st16" d="M467.87,22.32c-0.7-0.02-1.4,0-2.1,0.01l0,0c-0.94,0.29-1.98,0.22-2.82,0.84c0,0.11,0.01,0.21,0.01,0.32
		c3.79,0.01,7.55-0.38,11.31-0.87C472.16,22.09,470.01,22.38,467.87,22.32z"/>
	<path class="st16" d="M462.95,23.17c-1.53-0.08-3-0.82-4.58-0.44c-1.28,0.3-2.58,0.53-3.88,0.79l0,0c-0.1,0.18-0.2,0.36-0.3,0.54
		l0,0c2.93-0.07,5.87-0.11,8.77-0.57C462.81,23.39,462.81,23.28,462.95,23.17z"/>
	<path class="st16" d="M462.97,23.49c0-0.11-0.01-0.21-0.01-0.32C462.81,23.28,462.81,23.39,462.97,23.49z"/>
	<ellipse class="st16" cx="259.82" cy="85.5" rx="9.54" ry="0.2"/>
	<path class="st16" d="M398.86,76.78c1.04,1.08,2.11,1.65,3.15,1.96c0.69,0.21,1.52-0.61,2.13-1.14c0.28-0.25,0-0.81-0.58-0.82
		C402.08,76.77,400.61,76.78,398.86,76.78z"/>
	<path class="st16" d="M386.97,123.49c0.01-0.67-0.38-1.24-0.69-1.81c-0.15-0.28-0.39-0.2-0.59-0.05c-1.02,0.72-2.25,1.12-3.46,2.33
		c1.63-0.07,2.84-0.12,4.05-0.18C386.55,123.76,386.97,123.86,386.97,123.49z"/>
	<path class="st16" d="M160.3,89.92c-1.71-1.48-5.28-1.46-6.57,0C155.92,89.92,158.06,89.92,160.3,89.92z"/>
	<path class="st16" d="M105.19,142.86c-0.7-0.03-1.41-0.01-2.11-0.01c0-0.03,0-0.06,0-0.09c-0.75,0-1.5-0.01-2.25,0.01
		c-0.31,0.01-0.76-0.07-0.79,0.37c-0.02,0.42,0.34,0.64,0.77,0.66c0.84,0.05,1.68,0.13,2.53,0.13c0.65,0.01,1.31-0.05,1.96-0.13
		c0.32-0.04,0.69-0.21,0.67-0.6C105.92,142.7,105.47,142.87,105.19,142.86z"/>
	<path class="st16" d="M308.22,56.62c0.88,0.58,1.85,0.49,3.08,0.32c-0.73-0.91-1.3-1.67-2.19-2.03c-0.5-0.2-1.22-0.4-1.49,0.25
		C307.41,55.67,307.7,56.27,308.22,56.62z"/>
	<path class="st16" d="M466.09,129.52c-0.14,0-0.27,0-0.41,0c0.14,0.01,0.27,0.01,0.41,0.02
		C466.09,129.53,466.09,129.53,466.09,129.52z"/>
	<path class="st16" d="M460.13,129.66c0.54-0.07,1.08-0.11,1.63-0.14C461.22,129.54,460.68,129.58,460.13,129.66
		c-0.41,0.28-0.84,0.54-1.08,1.33c2.18-0.27,4.18-0.52,6.18-0.76c0.03-0.04,0.06-0.06,0.1-0.08c0.14-0.11,0.3-0.25,0.59-0.48
		C463.87,129.66,462,129.66,460.13,129.66z"/>
	<path class="st16" d="M291.15,29.48c1.74,0.27,3.44,0.54,5.17,0.81C295.68,28.29,293.23,27.92,291.15,29.48z"/>
	<path class="st16" d="M177.96,59.91c-0.38,0.05-0.77,0.09-1.15,0.14c-0.26,0.04-0.46-0.04-0.64-0.19c0,0.2,0,0.39,0,0.59
		C176.75,60.21,177.35,60.04,177.96,59.91z"/>
	<path class="st16" d="M139.05,103.02c0.08-0.78-0.48-1.27-1.07-1.68c-0.22-0.16-0.47-0.11-0.63,0.08
		c-0.45,0.54-0.58,1.15-0.28,1.82c0.28,0.62,0.53,1.25,0.83,1.95C138.67,104.62,138.97,103.85,139.05,103.02z"/>
	<path class="st16" d="M342.62,72.14c0.52,0.89,0.98,1.69,1.45,2.48c0.11,0.19,0.33,0.68,0.51,0.26c0.34-0.77,1.5-1.09,1.42-1.75
		c-0.09-0.75-1.2-0.68-1.89-0.9C343.68,72.11,343.23,71.91,342.62,72.14z"/>
	<path class="st16" d="M173.35,89.28c-2.05-0.53-4.07-0.69-5.92,0.6C169.46,90.08,171.43,89.86,173.35,89.28z"/>
	<path class="st16" d="M186.24,141.76c0.23-0.15,0.55-0.07,0.83-0.06c4.11,0.02,8.22-0.04,12.33,0.03
		c-0.32-0.05-0.63-0.15-0.95-0.15c-4.59-0.01-9.18,0-13.77,0c0.08,0.19,0.15,0.38,0.23,0.56c0.45,0.3,0.95,0.3,1.46,0.24
		C186.12,142.21,185.88,142,186.24,141.76z"/>
	<path class="st16" d="M186.58,141.88c0.42-0.02,0.85,0,1.27-0.01c3.85-0.06,7.71,0.2,11.55-0.15c-4.11-0.06-8.22-0.01-12.33-0.03
		c-0.28,0-0.6-0.08-0.83,0.06c-0.37,0.24-0.12,0.45,0.13,0.61l0,0C186.31,142.15,186.19,141.89,186.58,141.88z"/>
	<path class="st16" d="M166.55,89.93c-2.11-1.53-3.19-1.54-4.95,0C163.34,89.93,164.85,89.93,166.55,89.93z"/>
	<path class="st16" d="M231.64,140.68c2.45-0.24,4.9-0.08,7.36,0.04c-0.49,0.52-1.1,0.36-1.68,0.38c-0.2,0.04-0.4,0.09-0.6,0.13
		c1.47,0.08,2.94,0.13,4.33-0.61C237.91,140.36,234.78,140.19,231.64,140.68z"/>
	<path class="st16" d="M238.77,140.79c-0.51,0.11-0.98,0.21-1.45,0.31c0.57-0.02,1.19,0.13,1.68-0.38
		c-2.46-0.12-4.91-0.28-7.36-0.04l0,0C233.99,140.88,236.34,140.43,238.77,140.79z"/>
	<path class="st16" d="M290.5,93.38c-1.31-0.01-2.62-0.02-3.93,0.01c-0.3,0.01-0.51,0.23-0.47,0.57c0.03,0.3,0.28,0.37,0.51,0.37
		c0.66,0.02,1.31,0.01,1.97,0.01c0,0,0,0,0,0.01c0.61,0,1.22,0.01,1.83,0c0.29-0.01,0.59-0.06,0.61-0.43
		C291.03,93.6,290.81,93.39,290.5,93.38z"/>
	<path class="st16" d="M307.25,74.31c0.69-0.2,1.76-0.23,1.84-0.93c0.07-0.6-0.77-1.6-1.39-1.51c-0.7,0.1-0.48,1.26-0.81,1.81
		C306.87,74.05,306.81,74.44,307.25,74.31z"/>
	<path class="st16" d="M353.68,87.48c1.24,0.16,2.41-0.29,3.6-0.48c0.44-0.07,0.98-0.11,1.11-0.7c0.03-0.16-0.02-0.43-0.13-0.5
		c-0.5-0.32-0.88,0.06-1.26,0.3c-0.84,0.53-1.66,0.97-2.46-0.06c0.18,0.37,0.56,0.63,0.62,1.04
		C354.71,87.57,354.09,87.1,353.68,87.48z"/>
	<path class="st16" d="M353.68,87.48c0.41-0.39,1.03,0.09,1.47-0.39c-0.06-0.41-0.44-0.67-0.62-1.04c-0.12,0.41,0.34,0.62,0.35,0.98
		C354.54,87.35,353.96,87.01,353.68,87.48z"/>
	<path class="st16" d="M394.72,133.9c2.17,0.12,4.33-0.11,6.49-0.32c0.05-0.06,0.06-0.12,0.06-0.17c-0.76-0.12-1.57,0.19-2.27-0.33
		l0,0l0,0c-0.22-0.15-0.92,0.17-0.56-0.56C397.46,133.67,396.1,133.8,394.72,133.9z"/>
	<path class="st16" d="M394.72,133.9c1.37-0.1,2.74-0.23,3.71-1.39l0,0C397.17,132.9,396.12,133.87,394.72,133.9z"/>
	<path class="st16" d="M406.34,62.56c-0.24-0.29-0.73-0.58-0.03-0.9l0,0c-0.65,0.28-1.31,0.42-1.99,0.5
		C405.01,62.2,405.68,62.3,406.34,62.56z"/>
	<path class="st16" d="M400.31,62.32c0.61,0,1.24-0.18,1.79,0.24c1.42,0,2.83,0,4.25,0c-0.66-0.27-1.33-0.36-2.02-0.4
		C403,62.32,401.64,62.23,400.31,62.32z"/>
	<path class="st16" d="M22.85,88.37c-0.34,0.37-0.78,0.76-0.55,1.33c0.22,0.55,0.71,0.3,1.1,0.22c0.53-0.1,1.11,0.01,1.7-0.47
		c-0.47-0.36-0.85-0.63-1.19-0.94C23.57,88.21,23.25,87.93,22.85,88.37z"/>
	<path class="st16" d="M404.35,132.78c0.45-0.08,0.89-0.1,1.53,0.5c-0.79,0-1.31,0-1.82,0c-0.93,0.04-1.85,0.08-2.78,0.12l0,0
		c-0.03,0.05-0.06,0.11-0.07,0.17c1.94,0.05,3.88,0.22,5.78-0.51c-1.87-0.83-3.8-0.77-5.76-0.34
		C402.27,132.74,403.31,132.76,404.35,132.78L404.35,132.78z"/>
	<path class="st16" d="M16.85,67.63c-0.35,0.4-0.85,0.74-0.87,1.39c0.68,0.23,1.31,0.16,1.82-0.31c0.45-0.42,0.9-1.05,0.4-1.57
		C17.64,66.57,17.18,67.25,16.85,67.63z"/>
	<path class="st16" d="M335.09,64.39c-0.11,0.04-0.06,0.07,0.09,0.06c0.36-0.03,0.73-0.02,1.09,0c-0.15-0.05-0.29-0.12-0.42-0.23
		c-0.12,0.04-0.23,0.07-0.35,0.09C335.36,64.35,335.22,64.34,335.09,64.39z"/>
	<path class="st16" d="M340.03,64.6c0.55-0.08,1.11,0.01,1.51,0.49c-0.08-0.75-0.71-0.65-1.17-0.69c-0.65-0.07-1.31-0.01-1.97-0.01
		c-0.42,0-0.86,0.1-1.29,0.13C338.08,64.62,339.05,64.74,340.03,64.6z"/>
	<path class="st16" d="M340.03,64.6c-0.98,0.14-1.95,0.02-2.92-0.08c-0.28,0.02-0.56,0.02-0.83-0.07c-0.36-0.02-0.73-0.03-1.09,0
		c-0.15,0.01-0.2-0.02-0.09-0.06c0.12-0.05,0.27-0.04,0.41-0.07c0.12-0.02,0.24-0.05,0.35-0.09c-0.09-0.06-0.17-0.13-0.26-0.22
		c-0.73-0.19-1.28,0.18-1.84,0.62c1.26,0.15,2.51,0.11,3.75,0.17c1.35,0.06,2.73-0.3,4.04,0.3
		C341.14,64.61,340.58,64.52,340.03,64.6z"/>
	<path class="st16" d="M465.33,130.14c-0.03,0.03-0.07,0.05-0.1,0.08c1.1,0.13,2.12-0.29,3.19-0.53c-0.78-0.06-1.56-0.11-2.34-0.15
		C466.02,130.17,465.58,130.01,465.33,130.14z"/>
	<path class="st16" d="M465.68,129.52c-1.31-0.06-2.61-0.08-3.92,0C463.06,129.47,464.36,129.54,465.68,129.52z"/>
	<path class="st16" d="M466.08,129.54c-0.14-0.01-0.27-0.01-0.41-0.02c-1.31,0.02-2.62-0.05-3.92,0c-0.54,0.03-1.08,0.07-1.63,0.14
		c1.87,0,3.74,0,5.78,0c-0.29,0.24-0.45,0.37-0.59,0.48C465.58,130.01,466.02,130.17,466.08,129.54z"/>
	<path class="st16" d="M243.54,86.63c-2.93-0.14-3.75,0.06-4.36,1.12c1.1-0.1,2.16-0.2,3.22-0.3
		C242.67,87.03,243.56,87.46,243.54,86.63z"/>
	<path class="st16" d="M284.03,32.51c0.09-0.17,0.19-0.34,0.28-0.52c-0.14-0.06-0.27-0.12-0.41-0.18c-0.07-0.02-0.14-0.04-0.19-0.09
		c-2.14,0.01-2.79,0.26-3.39,1.36c0.8-0.09,1.55-0.17,2.29-0.26C283.03,32.5,283.56,32.63,284.03,32.51z"/>
	<path class="st16" d="M456.08,131.22c0.21-0.14,0.43-0.27,0.64-0.41c-0.67-0.14-1.39,0.07-2.02-0.41
		c-0.59-0.45-2.08,0.31-2.03,1.03c0.02,0.37,0.4,0.25,0.67,0.19c0.54-0.45,1.16-0.28,1.76-0.23c0.26-0.01,0.52-0.03,0.78-0.04
		C455.92,131.26,456,131.23,456.08,131.22z"/>
	<path class="st16" d="M48.18,123.72c-0.01,0.17,0.69,0.31,0.06,0.5c-0.66,0.19-1.41-0.1-2.04,0.35l0,0
		c1.39-0.21,2.84-0.07,3.92-0.76C49.63,123.81,48.9,123.84,48.18,123.72z"/>
	<path class="st16" d="M51.46,123.72c-0.4-0.08-0.8-0.14-1.2-0.18c-0.35,0.02-0.71,0.02-1.05-0.01c-0.02,0-0.03,0-0.05,0
		c-0.33,0.03-0.65,0.08-0.98,0.19c0.72,0.12,1.44,0.1,1.94,0.09c-1.08,0.69-2.53,0.55-3.92,0.76
		C48.01,124.6,49.8,124.54,51.46,123.72z"/>
	<path class="st16" d="M49.16,123.52c0.02,0,0.03,0,0.05,0c0.35,0.03,0.7,0.03,1.05,0.01C49.89,123.5,49.53,123.49,49.16,123.52z"/>
	<path class="st16" d="M150.68,142.09c-0.01,0.04-0.04,0.07-0.07,0.09c-0.14,0.19-0.29,0.37-0.43,0.56l0,0c1.88,0,3.75,0,5.63,0
		C154.13,142.05,152.47,141.42,150.68,142.09z M153.21,142.35c-0.53,0-1.07,0-1.6,0c0-0.04-0.01-0.08-0.01-0.12
		c0.52,0,1.04,0,1.56,0C153.17,142.27,153.19,142.31,153.21,142.35z"/>
	<path class="st16" d="M417.91,117.86c1.26,0,2.53,0,4.03,0C420.42,116.11,419.18,117.36,417.91,117.86z"/>
	<path class="st16" d="M469.74,117.98c-1.12-0.13-2.25-0.3-3.34,0.3c1.05,0.18,2.09,0.37,3.14,0.54c0.29,0.05,0.6-0.01,0.63-0.37
		C470.19,118.22,469.99,118.01,469.74,117.98z"/>
	<path class="st16" d="M139.24,142.18c-0.44,0.31-0.93,0.56-1.56,0.92c0.75,0.22,1.28,0.39,1.83,0.53c0.34,0.09,0.75,0.33,0.99-0.16
		c0.2-0.42-0.11-0.72-0.34-1C139.93,142.18,139.71,141.84,139.24,142.18z"/>
	<path class="st16" d="M465.77,22.33C465.77,22.33,465.78,22.33,465.77,22.33c2.69-0.24,5.39-0.05,8.08-0.1
		c0.26,0,0.45,0.08,0.42,0.4c0.34,0.08,0.69,0.19,1.12-0.35C472.08,22.08,468.93,21.71,465.77,22.33z"/>
	<path class="st16" d="M473.86,22.23c-2.69,0.05-5.39-0.14-8.08,0.1c0.7,0,1.4-0.03,2.1-0.01c2.14,0.06,4.29-0.23,6.4,0.3
		C474.31,22.31,474.12,22.22,473.86,22.23z"/>
	<path class="st16" d="M247.38,140.61c1.56,0,3.12,0,4.68,0c0-0.1,0-0.19,0-0.29c-1.56,0-3.12,0-4.68,0
		C247.38,140.42,247.38,140.52,247.38,140.61z"/>
	<path class="st16" d="M467.9,115.78c0.31-0.31,0.21-0.69-0.01-1.02c-0.43-0.67-1.17-0.81-2.11-1.31c0.28,1.06,0.76,1.57,1.2,2.08
		C467.22,115.8,467.51,116.17,467.9,115.78z"/>
	<path class="st16" d="M64.03,39.18c0.84-0.79,1.47-1.72,1.83-2.84C64.33,36.7,64.14,37.92,64.03,39.18z"/>
	<path class="st16" d="M31.48,89.24c-1.59-0.21-2.77,0.01-3.95,0.24c-0.1,0.18-0.19,0.36-0.29,0.55
		C28.62,90.23,29.94,90.12,31.48,89.24z"/>
	<path class="st16" d="M166.34,142.68c1.12,0.14,2.14-0.29,3.45-0.3C168.25,141.18,167.27,141.31,166.34,142.68z"/>
	<path class="st16" d="M53.05,87.81c1.2,0,2.36,0,3.55,0C55.47,86.56,53.71,86.54,53.05,87.81z"/>
	<path class="st16" d="M353.48,72.75c-0.58,0.15-0.96,0.72-1.04,1.35c-0.05,0.36,0.31,0.49,0.58,0.34c0.49-0.27,1.24-0.14,1.52-0.92
		C354.17,73.26,353.94,72.63,353.48,72.75z"/>
	<path class="st16" d="M59.5,71.91c-0.59-0.05-1.25-0.11-1.87-0.34c-0.21-0.07-0.42-0.15-0.62-0.21c-0.12,0-0.23,0.01-0.35,0.01
		c-0.18,0.18-0.36,0.36-0.53,0.54C57.27,71.45,58.4,71.98,59.5,71.91z"/>
	<path class="st16" d="M60.25,71.78c-1.05-0.2-1.74-0.32-2.43-0.45c-0.27,0.01-0.55,0.02-0.82,0.03c0.21,0.07,0.42,0.14,0.62,0.21
		c0.62,0.22,1.28,0.28,1.87,0.34c-1.09,0.07-2.22-0.45-3.38,0l0,0C57.38,72.11,58.64,72.26,60.25,71.78z"/>
	<path class="st16" d="M388.21,29.1c0.38-0.1,0.76-0.27,0.51-0.76c-0.21-0.4-0.54-0.66-1.01-0.3c-0.54,0.41-1.08,0.83-1.61,1.24
		c0.05,0.1,0.1,0.21,0.15,0.31C386.9,29.43,387.55,29.27,388.21,29.1z"/>
	<path class="st16" d="M401.16,133.21c0.08,0.06,0.11,0.13,0.11,0.2c0.01,0,0.01,0,0.02,0l0,0c0.25-0.22,0.53-0.32,0.81-0.35
		c-0.3-0.04-0.59-0.12-0.86-0.33c-0.09,0.01-0.18,0.03-0.26,0.06c-0.25,0.15-0.51,0.22-0.78,0.26
		C400.52,133.05,400.84,133.08,401.16,133.21z"/>
	<path class="st16" d="M403.73,133.06c0.07,0,0.11,0,0.12,0c0.11,0,0.22,0,0.34,0l0,0c-0.07,0-0.15,0-0.23,0
		c-0.35-0.05-0.7-0.02-1.06,0C403.19,133.08,403.46,133.1,403.73,133.06z"/>
	<path class="st16" d="M401.16,133.21c-0.32-0.13-0.64-0.15-0.97-0.15c-0.39,0.06-0.79,0.04-1.2,0.02c0.7,0.52,1.52,0.21,2.27,0.33
		C401.27,133.33,401.24,133.27,401.16,133.21z"/>
	<path class="st16" d="M402.91,133.06c0.35-0.02,0.71-0.06,1.06,0c0.08,0,0.15,0,0.23,0c0.05-0.09,0.11-0.18,0.16-0.28
		c-1.04-0.02-2.08-0.04-3.13-0.05c0.28,0.21,0.57,0.29,0.86,0.33C402.36,133.02,402.63,133.04,402.91,133.06z"/>
	<path class="st16" d="M404.19,133.06c-0.11,0-0.22,0-0.34,0c-0.01,0-0.05,0-0.12,0c-0.27,0.04-0.55,0.02-0.83,0
		c-0.28,0.02-0.55,0.03-0.82-0.01c-0.28,0.03-0.55,0.13-0.81,0.35c0.93-0.04,1.85-0.08,2.78-0.12
		C404.11,133.21,404.15,133.13,404.19,133.06z"/>
	<path class="st16" d="M402.91,133.06c-0.27-0.02-0.55-0.04-0.82-0.01C402.36,133.09,402.63,133.08,402.91,133.06z"/>
	<path class="st16" d="M318.56,83.21c-0.96,0.15-1.9,0-2.82-0.26c0.04,0.16,0.25,0.36,0.03,0.46c-0.43,0.18-0.67-0.11-0.86-0.45l0,0
		l0,0c-0.47,0.43-0.2,0.68,0.24,0.75c0.95,0.16,1.91,0.25,2.86,0.37C317.57,83.39,318.35,83.48,318.56,83.21z"/>
	<path class="st16" d="M318.56,83.21c-0.21,0.27-0.99,0.18-0.54,0.86C317.79,83.53,318.53,83.59,318.56,83.21z"/>
	<path class="st16" d="M195.9,31.29c1.06-0.29,1.85-0.93,2.95-1.84C197.12,29.4,196.42,30.23,195.9,31.29z"/>
	<path class="st16" d="M103.55,84.06l0.13,0.03c0.6-0.04,1.2-0.11,1.75,0.23c0.5-0.02,1.03,0.32,1.59-0.03
		c-0.16-0.44-0.44-0.65-0.77-0.8c-0.85,0.01-1.71,0.01-2.56,0.02l0,0c-0.09,0.19-0.17,0.37-0.26,0.56L103.55,84.06z"/>
	<path class="st16" d="M317.83,142.79c-0.76-0.01-1.54-0.25-2.46,0.28c0.87,0.25,1.56,0.47,2.25,0.65c0.35,0.09,0.68,0.01,0.73-0.41
		C318.38,142.96,318.12,142.79,317.83,142.79z"/>
	<path class="st16" d="M105.24,78.25c-0.96,0.37-1.64,1.06-2.65,1.8C104.38,80.26,104.97,79.81,105.24,78.25z"/>
	<path class="st16" d="M93.53,91.05c0.04-0.64,0.81-0.1,1.1-0.46c-1.23,0.1-2.45,0.2-3.68,0.3c0.09,0.17,0.19,0.33,0.28,0.5
		c1.04,0.08,2.08,0.06,3.11-0.12C94.04,91.24,93.5,91.44,93.53,91.05z"/>
	<path class="st16" d="M94.34,90.84c0.11-0.05,0.19-0.16,0.29-0.25c-0.29,0.37-1.06-0.17-1.1,0.46c-0.02,0.39,0.52,0.18,0.81,0.22
		c-0.18-0.09-0.37-0.18-0.55-0.27C93.97,90.95,94.17,90.92,94.34,90.84z"/>
	<path class="st16" d="M72.01,79.7c1.37,0.17,2.25-0.24,3.34-0.56C74.06,78.54,73.14,78.72,72.01,79.7z"/>
	<path class="st16" d="M298.61,30.69c0.46-0.04,1.04,0.2,1.11-0.53c0.05-0.54-0.37-0.57-0.77-0.56c-0.61,0.01-1.49-0.06-1.57,0.57
		C297.3,30.83,298.21,30.47,298.61,30.69z"/>
	<path class="st16" d="M122.24,67.72c-0.38-0.43-1.03-0.61-1.29-1.2c-0.09,0.49-0.69,0.18-0.86,0.54
		C120.95,66.83,121.63,67.21,122.24,67.72z"/>
	<path class="st16" d="M123.09,68.3c-0.57-0.78-1.19-1.47-2.15-1.77c0.27,0.59,0.91,0.77,1.29,1.2c-0.61-0.51-1.29-0.9-2.16-0.65
		l0,0C121.21,67.15,121.98,68.09,123.09,68.3z"/>
	<path class="st16" d="M395.85,124.8L395.85,124.8L395.85,124.8c-0.07,0.12-0.15,0.25-0.22,0.37l0,0c0.36-0.22,0.74-0.32,1.12-0.37
		C396.45,124.8,396.15,124.8,395.85,124.8z"/>
	<path class="st16" d="M399.06,124.63c0,0.01-0.05,0.01-0.14,0.01c-0.01,0-0.03,0-0.04,0c0.03,0.02,0.06,0.04,0.09,0.06
		C399.21,124.7,399.06,124.45,399.06,124.63z"/>
	<path class="st16" d="M400.43,124.7c-0.17-0.11-0.33-0.19-0.48-0.25c-0.48-0.01-0.97-0.07-1.45-0.14c-0.03,0-0.07,0.01-0.1,0.01
		c0.13,0.09,0.27,0.18,0.48,0.32c0.01,0,0.03,0,0.04,0c0.09,0,0.14-0.01,0.14-0.01c0-0.18,0.15,0.07-0.09,0.08
		c0.05,0.03,0.09,0.06,0.14,0.1c-0.86,0-1.62,0-2.36,0c-0.38,0.05-0.76,0.15-1.12,0.37C397.14,124.82,398.77,125.38,400.43,124.7z"
		/>
	<path class="st16" d="M398.5,124.31c0.48,0.07,0.97,0.13,1.45,0.14C399.43,124.24,398.96,124.26,398.5,124.31z"/>
	<path class="st16" d="M205.48,142.08c1.16,0.76,2.09-0.16,3.11-0.34C207.44,141.28,206.52,142,205.48,142.08z"/>
	<path class="st16" d="M398.15,63.4c-0.37-0.76-0.02-1.03,0.49-1.14c-0.1-0.11-0.18-0.28-0.22-0.55
		C398.16,62.25,396.98,62.64,398.15,63.4z"/>
	<path class="st16" d="M398.92,62.54c1.06,0.02,2.11,0.01,3.17,0.02c-0.66-0.37-1.42,0.02-2.1-0.22c-0.02,0-0.05,0-0.07,0
		c-0.44,0.01-0.98,0.24-1.29-0.08c-0.5,0.11-0.86,0.37-0.49,1.14C397.94,62.69,398.31,62.53,398.92,62.54z"/>
	<path class="st16" d="M398.64,62.26c0.09-0.02,0.19-0.04,0.29-0.05c-0.22-0.04-0.41-0.16-0.5-0.5
		C398.46,61.98,398.53,62.15,398.64,62.26z"/>
	<path class="st16" d="M399.92,62.34c0.02,0,0.05,0,0.07,0c-0.07-0.02-0.14-0.05-0.2-0.09c-0.27-0.07-0.59,0.01-0.87-0.04
		c-0.1,0.01-0.19,0.03-0.29,0.05C398.94,62.58,399.48,62.35,399.92,62.34z"/>
	<path class="st16" d="M402.09,62.56c-0.55-0.42-1.18-0.24-1.79-0.24c-0.1,0.01-0.21,0.01-0.31,0.02
		C400.67,62.58,401.43,62.19,402.09,62.56z"/>
	<path class="st16" d="M235.06,58.23c0.28,0.24,0.56,0.49,0.85,0.72c0.3,0.24,0.6,0.2,0.87-0.05c0.18-0.17,0.31-0.36,0.21-0.61
		c-0.13-0.31-0.41-0.37-0.69-0.32c-0.36,0.07-0.62-0.07-0.88-0.27C235.18,57.8,235.08,57.99,235.06,58.23z"/>
	<path class="st16" d="M386.08,62.39h-0.01h-0.01C386.07,62.39,386.07,62.39,386.08,62.39z"/>
	<path class="st16" d="M385.19,62.39c-0.05,0-0.1,0-0.15,0c0.07,0.01,0.13,0.01,0.2,0.01C385.23,62.4,385.21,62.4,385.19,62.39z"/>
	<path class="st16" d="M382.75,62.29c-0.57-0.18-0.77-0.64-0.5-1.47c-0.41,0.43-0.4,0.92-0.19,1.43
		C382.28,62.3,382.51,62.3,382.75,62.29z"/>
	<path class="st16" d="M386.42,62.37c-0.12,0-0.24,0.01-0.36,0.02h0.01C386.2,62.38,386.31,62.37,386.42,62.37z"/>
	<path class="st16" d="M382.75,62.29c0.36-0.02,0.73-0.06,1.09-0.01c0.24,0.01,0.48,0.02,0.72,0.03c0.16,0.05,0.33,0.07,0.49,0.09
		c0.05,0,0.1,0,0.15,0c-0.15-0.06-0.29-0.17-0.41-0.38c-0.42,0-0.85-0.05-1.27,0.02c-0.99,0.17-1.36-0.26-1.27-1.2l0,0
		C381.97,61.65,382.18,62.11,382.75,62.29z"/>
	<path class="st16" d="M386.7,62.32c-0.01,0-0.01-0.01-0.02-0.01c0,0.01,0.01,0.02,0.01,0.03C386.69,62.33,386.69,62.32,386.7,62.32
		z"/>
	<path class="st16" d="M386.06,62.39C386.06,62.39,386.07,62.39,386.06,62.39c-0.28,0-0.57,0-0.87,0c0.02,0.01,0.03,0.01,0.05,0.01
		C385.52,62.42,385.79,62.41,386.06,62.39z"/>
	<path class="st16" d="M385.24,62.41c0.25,0.08,0.54,0.03,0.82-0.01C385.79,62.41,385.52,62.42,385.24,62.41z"/>
	<path class="st16" d="M386.08,62.39c-0.01,0-0.01,0-0.02,0c-0.28,0.04-0.56,0.1-0.82,0.01c-0.07,0-0.13-0.01-0.2-0.01
		s-0.14,0-0.21,0c-0.2,0-0.39,0-0.59-0.01c0.1,0.04,0.2,0.1,0.3,0.18l0,0l0,0c0.78,0.01,1.56,0.13,2.39-0.11
		c-0.04-0.03-0.07-0.04-0.11-0.06c-0.05,0-0.1,0-0.16,0C386.47,62.39,386.28,62.39,386.08,62.39z"/>
	<path class="st16" d="M384.84,62.39c0.07,0,0.14,0,0.21,0c-0.16-0.02-0.32-0.04-0.49-0.09c-0.24,0-0.48-0.02-0.72-0.03
		c0.14,0.02,0.28,0.05,0.42,0.11C384.44,62.39,384.64,62.39,384.84,62.39z"/>
	<path class="st16" d="M385.19,62.39c0.29,0,0.58,0,0.87,0c0.12-0.02,0.24-0.03,0.36-0.02c0.08-0.01,0.17-0.01,0.25-0.02
		c0.01,0,0-0.01,0.01-0.01c0-0.01,0-0.02-0.01-0.03c-0.63-0.26-1.35,0.12-1.9-0.3C384.9,62.22,385.04,62.33,385.19,62.39z"/>
	<path class="st16" d="M386.6,62.38c-0.06-0.01-0.12-0.01-0.18-0.02c-0.11,0.01-0.23,0.02-0.34,0.02c0.2,0,0.39,0,0.59,0
		c0.05,0,0.1,0,0.16,0c-0.04-0.02-0.08-0.05-0.13-0.07c-0.01,0.01,0,0.01-0.01,0.02C386.68,62.37,386.66,62.39,386.6,62.38z"/>
	<path class="st16" d="M386.68,62.34c-0.01,0,0,0.01-0.01,0.01c-0.08,0.01-0.17,0.01-0.25,0.02c0.06,0,0.12,0,0.18,0.02
		C386.66,62.39,386.68,62.37,386.68,62.34z"/>
	<path class="st16" d="M255.34,139.44c-0.45,0.01-0.9,0.29-0.92,0.72c-0.03,0.62,0.55,0.26,0.86,0.38c0.33-0.14,0.96,0.32,0.97-0.36
		C256.25,139.77,255.81,139.44,255.34,139.44z"/>
	<path class="st16" d="M406.42,79.03c-0.02,0.47,0.51,0.41,0.82,0.54c0.35-0.03,0.75-0.1,0.73-0.48c-0.02-0.42-0.3-0.83-0.76-0.86
		C406.73,78.2,406.43,78.63,406.42,79.03z"/>
	<path class="st16" d="M396.77,123.45c-0.64,0.23-0.01,1.31-0.92,1.35c0.58-0.12,1.15-0.23,1.73-0.23
		C396.81,124.44,396.76,124.25,396.77,123.45z"/>
	<path class="st16" d="M397.59,124.57c0.28,0,0.56,0.01,0.84,0.07c0.14,0.03-0.17-0.19-0.04-0.32c-0.06-0.03-0.12-0.04-0.19-0.05
		c-0.03,0-0.06-0.01-0.09-0.01c-0.57-0.04-1.34,0.29-1.35-0.81C396.76,124.25,396.81,124.44,397.59,124.57z"/>
	<path class="st16" d="M398.12,124.26c0.03,0,0.06,0.01,0.09,0.01C398.18,124.27,398.15,124.26,398.12,124.26z"/>
	<path class="st16" d="M396.75,124.8c0.75-0.09,1.51,0.03,2.19-0.09c0.01,0,0.01-0.01,0.02-0.01c-0.03-0.02-0.06-0.04-0.09-0.06
		c-0.22,0.01-0.44,0.02-0.66,0.01c-0.25-0.03-0.45-0.06-0.62-0.09c-0.58,0.01-1.16,0.12-1.73,0.23l0,0
		C396.15,124.8,396.45,124.8,396.75,124.8z"/>
	<path class="st16" d="M398.43,124.64c-0.28-0.06-0.56-0.07-0.84-0.07c0.17,0.03,0.37,0.06,0.62,0.09c0.22,0,0.44,0,0.66-0.01
		c-0.21-0.14-0.35-0.23-0.48-0.32C398.26,124.45,398.57,124.67,398.43,124.64z"/>
	<path class="st16" d="M396.75,124.8c0.74,0,1.5,0,2.36,0c-0.05-0.04-0.1-0.06-0.14-0.1c-0.01,0-0.01,0.01-0.02,0.01
		C398.26,124.84,397.5,124.71,396.75,124.8z"/>
	<path class="st16" d="M220.29,141.7c1.43-0.07,2.87,0.15,4.29-0.13c-1.59,0.03-3.18,0.06-4.77,0.07c-0.78,0.01-1.03,0.21-0.37,0.84
		C219.16,141.6,219.79,141.72,220.29,141.7z"/>
	<path class="st16" d="M220.64,141.88c1.31-0.14,2.67,0.32,3.94-0.32c-1.42,0.29-2.86,0.06-4.29,0.13c-0.5,0.03-1.13-0.09-0.85,0.78
		l0,0C219.56,141.73,220.16,141.93,220.64,141.88z"/>
	<path class="st16" d="M396.49,28.26c-0.98-1.1-1.92,0.05-2.88,0.05C394.58,28.83,395.55,28.94,396.49,28.26z"/>
	<path class="st16" d="M214.92,141.74c0.88,0.44,1.76,0.49,2.98-0.02C216.67,141.44,215.79,141.51,214.92,141.74z"/>
	<path class="st16" d="M243.54,86.63c0.28,1.19-0.85,0.42-1.14,0.82c1.11,0.1,2.11-0.26,3.11-0.67
		C244.84,86.54,244.19,86.52,243.54,86.63z"/>
	<path class="st16" d="M243.54,86.63c0.02,0.82-0.87,0.39-1.14,0.82C242.69,87.05,243.82,87.82,243.54,86.63z"/>
	<path class="st16" d="M52.53,119.02c0.02,0.03-0.27,0.27-0.41,0.42c0.51,0.02,1.25,0.18,1.28-0.46c0.02-0.6-0.74-0.36-1.16-0.39
		c-0.6-0.04-1.21,0.03-1.82,0.05c0.39,0.08,0.79,0.16,1.18,0.24C51.92,118.84,52.28,118.65,52.53,119.02z"/>
	<path class="st16" d="M171.23,142.22c1.32,0.43,1.73,0.39,2.52-0.28C172.87,141.82,172.06,141.87,171.23,142.22z"/>
	<path class="st16" d="M456.72,130.81c0.06,0.56-0.37,0.37-0.64,0.41c-0.07,0.04-0.13,0.08-0.2,0.13c0.92,0.02,1.85,0.05,3.02-0.38
		C457.96,130.43,457.34,130.69,456.72,130.81z"/>
	<path class="st16" d="M456.72,130.81c-0.21,0.14-0.43,0.27-0.64,0.41C456.36,131.18,456.78,131.37,456.72,130.81z"/>
	<path class="st16" d="M79.51,92.14c-0.63,0.06-1.28-0.14-1.89,0.12c0.93,0,1.87,0.01,2.8,0c0.28,0,0.61-0.02,0.59-0.41
		c-0.02-0.34-0.26-0.47-0.6-0.38l0,0C80.48,92.2,79.95,92.1,79.51,92.14z"/>
	<path class="st16" d="M77.61,92.27c0.62-0.26,1.26-0.07,1.89-0.12c0.44-0.04,0.98,0.06,0.91-0.67
		C79.7,92.53,78.47,91.73,77.61,92.27z"/>
	<path class="st16" d="M13.81,68.05c-0.3,0.08-0.39,0.46-0.24,0.69c0.38,0.59,0.9,0.38,1.59,0.17
		C14.72,68.43,14.49,67.87,13.81,68.05z"/>
	<path class="st16" d="M284.34,31.99c0.38-0.04,0.79-0.13,0.76,0.48c0.05,0.05,0.09,0.1,0.14,0.15l0,0l0,0
		c0.33-0.08,0.88,0.12,0.92-0.36c0.04-0.55-0.52-0.55-0.93-0.57c-0.5-0.02-1.01,0.02-1.51,0.03c0.06,0.03,0.13,0.06,0.19,0.09
		C284.06,31.85,284.23,31.86,284.34,31.99z"/>
	<path class="st16" d="M283.91,31.81c0.14,0.06,0.27,0.12,0.41,0.18c0.01,0,0.02,0,0.03,0C284.23,31.86,284.06,31.85,283.91,31.81z"
		/>
	<path class="st16" d="M307.25,83.68c0.2-0.01,0.3,0.17,0.28,0.38c0.19,0,0.38,0,0.56,0.01c-0.1-0.17-0.19-0.34-0.29-0.51l0,0
		c-1.32,0-2.64-0.08-3.94,0.25C304.98,83.5,306.12,83.71,307.25,83.68z"/>
	<path class="st16" d="M307.52,84.06c0.03-0.21-0.07-0.38-0.28-0.38c-1.13,0.03-2.27-0.18-3.39,0.12
		C305.06,84.08,306.33,83.49,307.52,84.06z"/>
	<path class="st16" d="M55.86,71.18c-0.46,0.03-0.88-0.06-0.6-0.71c-0.34,0.01-0.73,0.13-0.73,0.45c0.01,0.45,0.48,0.26,0.76,0.31
		c0.45,0.07,0.9,0.1,1.36,0.14c0.05-0.03,0.1-0.05,0.15-0.07C56.5,71.21,56.19,71.15,55.86,71.18z"/>
	<path class="st16" d="M55.86,71.18c0.33-0.02,0.64,0.03,0.94,0.12c0.33-0.17,0.68-0.12,1.02,0.04c-0.48-0.43-1.08-0.23-1.62-0.31
		c-0.39-0.06-0.91,0.12-0.94-0.55C54.98,71.11,55.4,71.21,55.86,71.18z"/>
	<path class="st16" d="M56.8,71.29c-0.05,0.02-0.1,0.04-0.15,0.07c0.12,0,0.23-0.01,0.35-0.01C56.93,71.34,56.87,71.31,56.8,71.29z"
		/>
	<path class="st16" d="M56.8,71.29c0.07,0.02,0.13,0.04,0.2,0.06c0.27-0.01,0.55-0.02,0.82-0.03C57.48,71.17,57.13,71.13,56.8,71.29
		z"/>
	<path class="st16" d="M234.81,58.11c0.06,0.06,0.16,0.08,0.25,0.12c-0.19-0.39-0.16-0.61,0.35-0.52c-0.12-0.07-0.24-0.21-0.35-0.2
		c-0.56,0.04-1.43-0.71-1.59-0.05C233.26,58.34,234.44,57.68,234.81,58.11z"/>
	<path class="st16" d="M235.06,58.23c0.02-0.24,0.12-0.43,0.35-0.52C234.9,57.62,234.87,57.85,235.06,58.23z"/>
	<path class="st16" d="M199.58,141.73L199.58,141.73c0.43,0.38-0.04,0.47-0.21,0.66c0.67,0.09,1.23-0.08,1.83-0.73
		C200.52,141.53,200.05,141.46,199.58,141.73z"/>
	<path class="st16" d="M199.58,141.73c-0.07,0.22-0.14,0.44-0.21,0.66C199.55,142.2,200.01,142.11,199.58,141.73z"/>
	<path class="st16" d="M449.36,24.32L449.36,24.32c0.79,0.13,1.58,0.19,2.37-0.23c-0.79-0.19-1.59-0.37-2.38-0.56
		C449.57,23.79,449.58,24.05,449.36,24.32z"/>
	<path class="st16" d="M393.39,28.7c1.01,0.36,2.1,0.32,3.15,0.01c0.21-0.06,0.12-0.31-0.05-0.45c-0.71,0.64-2.08,0.66-2.88,0.05
		C393.26,28.3,392.95,28.54,393.39,28.7z"/>
	<path class="st16" d="M396.49,28.26c-0.95,0.68-1.91,0.58-2.88,0.05C394.41,28.92,395.79,28.89,396.49,28.26z"/>
	<path class="st16" d="M303.85,83.79c-1.35-0.14-2.69-0.02-4.02,0.24C301.16,83.73,302.53,84.17,303.85,83.79z"/>
	<path class="st16" d="M303.85,83.79c-1.32,0.38-2.69-0.06-4.02,0.24c0,0,0,0-0.01,0C301.18,84.09,302.54,84.36,303.85,83.79z"/>
	<path class="st16" d="M382.54,62.45c-0.17-0.03-0.33-0.08-0.49-0.2c-0.1,0.29-0.48,0.48-0.35,0.87l0,0
		C381.94,62.77,382.23,62.57,382.54,62.45z"/>
	<path class="st16" d="M382.54,62.45c-0.31,0.12-0.59,0.32-0.84,0.67c0.87-0.59,1.89-0.43,2.85-0.56
		C383.92,62.17,383.2,62.56,382.54,62.45z"/>
	<path class="st16" d="M382.94,62.33c-0.07-0.01-0.13-0.02-0.19-0.04c-0.23,0.01-0.47,0.01-0.7-0.04c0.16,0.12,0.32,0.17,0.49,0.2
		C382.67,62.4,382.8,62.36,382.94,62.33z"/>
	<path class="st16" d="M383.83,62.28c-0.36-0.05-0.72-0.01-1.09,0.01c0.06,0.02,0.13,0.03,0.19,0.04
		C383.22,62.28,383.53,62.27,383.83,62.28z"/>
	<path class="st16" d="M384.25,62.39c-0.27,0-0.53-0.01-0.8-0.01c-0.19,0-0.36-0.02-0.51-0.05c-0.14,0.03-0.27,0.07-0.4,0.12
		c0.66,0.11,1.39-0.28,2.01,0.12l0,0C384.45,62.49,384.35,62.43,384.25,62.39z"/>
	<path class="st16" d="M384.25,62.39c-0.14-0.06-0.28-0.09-0.42-0.11c-0.31-0.01-0.61,0-0.9,0.05c0.15,0.03,0.32,0.05,0.51,0.05
		C383.72,62.38,383.98,62.39,384.25,62.39z"/>
	<path class="st16" d="M194.95,31.64c-0.26-0.56-0.56-0.92-1.09-1.03c-0.24-0.05-0.34,0.18-0.25,0.36
		C193.83,31.48,194.21,31.75,194.95,31.64z"/>
	<path class="st16" d="M336.03,64.15c0.77,0.25,1.56,0.29,2.37,0.23c-0.51-0.38-1.19,0.08-1.68-0.36c-0.11-0.01-0.22-0.01-0.32-0.02
		C336.27,64.05,336.15,64.1,336.03,64.15z"/>
	<path class="st16" d="M336.39,64c-0.18-0.01-0.37-0.03-0.55-0.04c-0.08,0.02-0.16,0.03-0.24,0.04c0.14,0.06,0.29,0.1,0.44,0.15
		C336.15,64.1,336.27,64.05,336.39,64z"/>
	<path class="st16" d="M336.03,64.15c-0.04,0.02-0.08,0.04-0.13,0.06c-0.02,0.01-0.04,0.01-0.05,0.01c0.14,0.1,0.28,0.18,0.42,0.23
		c0.28,0.02,0.56,0.04,0.83,0.07c0.43-0.04,0.87-0.14,1.29-0.13C337.59,64.45,336.8,64.4,336.03,64.15z"/>
	<path class="st16" d="M335.91,64.21c0.04-0.02,0.08-0.04,0.13-0.06c-0.15-0.05-0.29-0.09-0.44-0.15c0.08,0.09,0.17,0.16,0.26,0.22
		C335.87,64.22,335.89,64.22,335.91,64.21z"/>
	<path class="st16" d="M337.11,64.52c-0.28-0.03-0.55-0.05-0.83-0.07C336.55,64.54,336.83,64.54,337.11,64.52z"/>
	<path class="st16" d="M351.31,80.35c-0.36,0.89-0.94,1.26-0.93,2.14C351.04,81.94,351.7,81.63,351.31,80.35z"/>
	<path class="st16" d="M102.07,83.59c-0.09,0.62,0.55,0.46,0.93,0.52c0.13,0.02,0.28-0.03,0.41-0.05c-0.2-0.32,0.12-0.4,0.26-0.56
		c-0.23-0.01-0.47-0.06-0.7-0.04C102.67,83.51,102.16,82.97,102.07,83.59z"/>
	<path class="st16" d="M103.42,84.06c0.09-0.19,0.17-0.37,0.26-0.56C103.54,83.67,103.22,83.74,103.42,84.06z"/>
	<path class="st16" d="M454.49,23.52L454.49,23.52c-0.59-0.09-1.11,0-1.64,0.44c0.53,0.36,0.93,0.43,1.34,0.1l0,0
		C454.04,23.74,454.28,23.64,454.49,23.52z"/>
	<path class="st16" d="M454.19,24.06c0.1-0.18,0.2-0.36,0.3-0.54C454.28,23.64,454.04,23.74,454.19,24.06z"/>
	<path class="st16" d="M449.36,24.32L449.36,24.32c-0.13-0.26-0.1-0.52-0.01-0.78c-0.66-0.22-1.08-0.03-1.19,0.7
		C448.54,24.52,448.96,24.37,449.36,24.32z"/>
	<path class="st16" d="M449.36,24.32L449.36,24.32L449.36,24.32c0.21-0.26,0.21-0.53-0.01-0.78
		C449.26,23.79,449.24,24.06,449.36,24.32z"/>
	<path class="st16" d="M315.2,35.63c0.53-0.03,1.14,0.27,1.65-0.3c-0.67-0.51-1.31-0.19-1.92-0.21
		C315.01,35.29,315.11,35.46,315.2,35.63L315.2,35.63z"/>
	<path class="st16" d="M288,30.6L288,30.6c0.54-0.05,1.05-0.13,1.24-0.9c-0.6,0.16-1.16,0.1-1.55,0.57
		C287.79,30.38,287.9,30.49,288,30.6C288.01,30.6,288,30.6,288,30.6z"/>
	<path class="st16" d="M115.44,78.12c-0.85-0.34-1.38-0.24-2.09,0.19C114.12,78.5,114.66,78.68,115.44,78.12z"/>
	<path class="st16" d="M150.6,142.18c0.02-0.03,0.05-0.06,0.07-0.09c-0.65-0.04-1.2,0.27-1.89,0.45c0.51,0.45,0.93,0.42,1.38,0.21
		l0,0C149.86,142.21,150.4,142.32,150.6,142.18z"/>
	<path class="st16" d="M150.17,142.74c0.14-0.19,0.29-0.37,0.43-0.56C150.4,142.32,149.86,142.21,150.17,142.74z"/>
	<path class="st16" d="M52.11,119.44c-0.04-0.68-0.53-0.09-0.75-0.26c-0.05-0.01-0.1-0.01-0.15-0.01c-0.32,0.09-0.69-0.07-1.02,0.01
		l0,0l0,0C50.76,119.81,51.46,119.46,52.11,119.44z"/>
	<path class="st16" d="M52.53,119.02c-0.25-0.36-0.6-0.17-0.93-0.13c-0.11,0.16-0.24,0.24-0.38,0.28c0.05,0,0.1,0.01,0.15,0.01
		c0.22,0.17,0.71-0.42,0.75,0.26C52.26,119.29,52.55,119.05,52.53,119.02z"/>
	<path class="st16" d="M58,88.32c0.81,0,1.32,0.3,1.82-0.38C59.21,87.76,58.76,87.64,58,88.32z"/>
	<path class="st16" d="M433.49,131.95L433.49,131.95c0.21,0.11,0.47,0.19,0.27,0.51c0.56,0.07,0.94-0.12,1.14-0.74
		C434.33,131.54,433.9,131.69,433.49,131.95z"/>
	<path class="st16" d="M433.49,131.95c0.09,0.17,0.18,0.34,0.27,0.51C433.96,132.14,433.7,132.06,433.49,131.95z"/>
	<path class="st16" d="M112.14,74.33c0.23,0.01,0.4-0.18,0.41-0.57c-0.25-0.13-0.54-0.31-0.86-0.44c-0.22-0.09-0.36,0.09-0.27,0.29
		C111.56,73.94,111.73,74.31,112.14,74.33z"/>
	<path class="st16" d="M408.34,132.79c-0.19,0-0.39,0.02-0.44,0.24c-0.07,0.29,0.13,0.44,0.36,0.49c0.25,0.05,0.43-0.1,0.53-0.36
		C408.79,132.86,408.59,132.79,408.34,132.79z"/>
	<path class="st16" d="M308.09,84.06c0.5,0.08,0.97,0.1,1.33-0.6c-0.63,0.03-1.12,0.06-1.62,0.08l0,0
		C307.99,83.67,308.26,83.74,308.09,84.06z"/>
	<path class="st16" d="M307.8,83.55c0.1,0.17,0.19,0.34,0.29,0.51C308.26,83.74,307.99,83.67,307.8,83.55z"/>
	<path class="st16" d="M89.54,90.89c-0.52,0.04-0.98,0.17-1.26,0.7c0.48,0.22,0.9,0.27,1.28-0.12
		C89.24,91.29,89.48,91.09,89.54,90.89z"/>
	<path class="st16" d="M220.9,142.7c0.85,0.03,1.7,0,2.53-0.18C222.59,142.63,221.71,142.34,220.9,142.7z"/>
	<path class="st16" d="M220.9,142.7c0.82-0.37,1.69-0.07,2.53-0.18c0.13-0.03,0.26-0.05,0.39-0.08
		C222.83,142.39,221.83,142.12,220.9,142.7z"/>
	<path class="st16" d="M459.93,74.79c-0.02-0.02-0.05-0.05-0.07-0.07c0,0.54-0.65,1.01-0.12,1.73c0.3-0.41,0.63-0.69,0.66-1.17l0,0
		C459.92,75.43,460.05,74.99,459.93,74.79z"/>
	<path class="st16" d="M460.4,75.28c-0.16-0.16-0.31-0.32-0.47-0.48C460.05,74.99,459.92,75.43,460.4,75.28z"/>
	<path class="st16" d="M106.24,83.49c-0.86-0.55-1.71-0.43-2.56,0.02C104.53,83.28,105.39,83.32,106.24,83.49z"/>
	<path class="st16" d="M103.68,83.51c0.85-0.01,1.71-0.01,2.56-0.02C105.39,83.32,104.53,83.28,103.68,83.51z"/>
	<path class="st16" d="M299.3,80.64c0.19,0.42,0.6,0.21,0.9,0.34c0.36-0.06,0.56-0.22,0.13-0.44
		C300.01,80.39,299.61,80.35,299.3,80.64z"/>
	<path class="st16" d="M284.91,32.48c-0.23,0.01-0.46,0.01-0.69,0.02c-0.07,0.06-0.15,0.12-0.24,0.16
		c-0.45,0.11-0.94-0.13-1.36,0.17c0.88,0.03,1.77,0.1,2.63-0.2c-0.11-0.03-0.2-0.07-0.3-0.12
		C284.93,32.49,284.92,32.49,284.91,32.48z"/>
	<path class="st16" d="M283.97,32.66c0.1-0.04,0.17-0.1,0.24-0.16c-0.06,0-0.12,0-0.18,0.01c-0.47,0.12-1-0.01-1.42,0.32
		C283.03,32.53,283.52,32.77,283.97,32.66z"/>
	<path class="st16" d="M285.1,32.47c-0.06,0-0.13,0-0.19,0.01c0.01,0.01,0.02,0.02,0.03,0.02c0.09,0.06,0.19,0.1,0.3,0.12l0,0
		C285.19,32.57,285.14,32.52,285.1,32.47z"/>
	<path class="st16" d="M224.86,142.37c0.69,0.06,1.36,0.05,2.02-0.15C226.22,142.36,225.51,142.1,224.86,142.37z"/>
	<path class="st16" d="M224.86,142.37c0.65-0.27,1.36-0.01,2.02-0.15c0.1-0.03,0.19-0.05,0.29-0.09
		C226.39,142.09,225.59,141.91,224.86,142.37z"/>
	<path class="st16" d="M68.57,29.15c-0.19,0-0.38,0-0.57,0c-0.36,0.27-0.42,0.58-0.15,0.97C68.34,29.96,68.37,29.49,68.57,29.15z"/>
	<path class="st16" d="M299.3,80.64c-0.32,0.04-0.52,0.27-0.46,0.53c0.09,0.42,0.41,0.18,0.64,0.11c0.25-0.08,0.48-0.2,0.72-0.3
		C299.82,81.07,299.37,81.35,299.3,80.64z"/>
	<path class="st16" d="M299.3,80.64c0.07,0.71,0.52,0.43,0.9,0.34C299.9,80.85,299.48,81.05,299.3,80.64z"/>
	<path class="st16" d="M68.57,29.15c-0.01-0.31,0.43-0.8-0.03-0.89c-0.53-0.1-0.52,0.49-0.54,0.89
		C68.19,28.98,68.38,28.98,68.57,29.15z"/>
	<path class="st16" d="M68.01,29.15c0.19,0,0.38,0,0.57,0C68.38,28.98,68.19,28.98,68.01,29.15z"/>
	<path class="st16" d="M315.73,82.95c-0.27,0.04-0.55-0.59-0.82,0C315.19,82.95,315.46,83.26,315.73,82.95z"/>
	<path class="st16" d="M315.77,83.41c0.21-0.09,0-0.3-0.03-0.46c-0.27,0.31-0.55,0-0.82,0l0,0C315.1,83.3,315.34,83.59,315.77,83.41
		z"/>
	<path class="st16" d="M83.57,91.74c-0.01,0.17-0.01,0.34-0.02,0.51c0.35-0.04,0.95,0.29,0.95-0.3
		C84.5,91.57,83.91,91.75,83.57,91.74z"/>
	<path class="st16" d="M83.57,91.74c-0.36,0-0.95-0.29-0.94,0.31c0.01,0.42,0.58,0.22,0.92,0.2l0,0l0,0
		C83.41,92.07,83.42,91.9,83.57,91.74z"/>
	<path class="st16" d="M83.55,92.24L83.55,92.24c0.01-0.17,0.01-0.34,0.02-0.51C83.42,91.9,83.41,92.07,83.55,92.24z"/>
	<path class="st16" d="M50.41,118.65c-0.19,0.13-0.66,0.14-0.21,0.52c0.12-0.1,0.26-0.13,0.4-0.13
		C50.51,118.96,50.44,118.85,50.41,118.65z"/>
	<path class="st16" d="M50.6,119.04c0.34-0.01,0.71,0.12,1-0.15c-0.39-0.08-0.79-0.16-1.18-0.24
		C50.44,118.85,50.51,118.96,50.6,119.04z"/>
	<path class="st16" d="M51.22,119.16c-0.22-0.01-0.46,0-0.62-0.13c-0.14,0.01-0.28,0.04-0.4,0.13l0,0
		C50.52,119.1,50.89,119.25,51.22,119.16z"/>
	<path class="st16" d="M51.6,118.89c-0.29,0.27-0.66,0.13-1,0.15c0.16,0.12,0.39,0.12,0.62,0.13
		C51.35,119.13,51.48,119.05,51.6,118.89z"/>
	<path class="st16" d="M339.21,63.57c-0.09,0.03-0.18,0.05-0.27,0.1l0,0l0,0c0.68,0.04,1.4,0.33,1.97-0.32
		C340.4,63.75,339.77,63.44,339.21,63.57z"/>
	<path class="st16" d="M340.92,63.35c-0.56,0.12-1.15,0.03-1.7,0.21C339.77,63.44,340.4,63.75,340.92,63.35z"/>
	<path class="st16" d="M90.38,90.88c-0.28,0-0.56,0.01-0.84,0.01l0,0l0,0c0.16,0.19-0.02,0.39,0.01,0.58
		c0.28-0.03,0.57-0.06,0.85-0.09C90.4,91.22,90.39,91.05,90.38,90.88L90.38,90.88z"/>
	<path class="st16" d="M89.54,90.89L89.54,90.89c-0.06,0.19-0.3,0.39,0.01,0.58C89.52,91.28,89.7,91.08,89.54,90.89z"/>
	<path class="st16" d="M400.97,132.79c-0.67,0.04-1.37-0.17-1.97,0.28l0,0C399.61,132.68,400.35,133.14,400.97,132.79z"/>
	<polygon class="st16" points="398.99,133.07 399,133.07 399,133.07 	"/>
	<polygon class="st16" points="399,133.07 399,133.07 398.99,133.07 	"/>
	<path class="st16" d="M399,133.07L399,133.07c0.4,0.02,0.8-0.02,1.2-0.02c0.27-0.04,0.53-0.11,0.78-0.26
		C400.35,133.14,399.61,132.68,399,133.07z"/>
	<path class="st16" d="M399,133.07h-0.01H399z"/>
	<path class="st16" d="M400.19,133.05c-0.4,0-0.8,0.04-1.2,0.02l0,0C399.4,133.09,399.8,133.11,400.19,133.05z"/>
	<path class="st16" d="M198.33,87.8c-0.21,0.02-0.37,0.18-0.29,0.36c0.05,0.11,0.3,0.18,0.46,0.19c0.16,0.01,0.38,0,0.38-0.26
		C198.8,87.82,198.57,87.78,198.33,87.8z"/>
	<path class="st16" d="M315.2,35.63L315.2,35.63c-0.18-0.13-0.47-0.19-0.27-0.51c-0.28,0.02-0.79-0.17-0.68,0.31
		C314.33,35.82,314.85,35.65,315.2,35.63z"/>
	<path class="st16" d="M315.2,35.63c-0.09-0.17-0.18-0.34-0.27-0.51C314.72,35.45,315.02,35.51,315.2,35.63z"/>
	<path class="st16" d="M371.47,67.96c-0.15-0.12-0.23-0.24-0.33-0.25c-0.12-0.01-0.32,0.06-0.34,0.14c-0.07,0.22,0.1,0.34,0.3,0.33
		C371.19,68.18,371.3,68.07,371.47,67.96z"/>
	<path class="st16" d="M369.57,71.66c0.17-0.3,0.62-0.59,0.24-0.95c-0.2-0.19-0.52-0.04-0.59,0.31
		C369.75,71.01,369.7,71.31,369.57,71.66z"/>
	<path class="st16" d="M369.21,71.03c0.12,0.21,0.24,0.43,0.35,0.64C369.7,71.31,369.75,71.01,369.21,71.03z"/>
	<path class="st16" d="M27.53,89.48c-0.39-0.09-0.83-0.01-0.9,0.35c-0.06,0.29,0.37,0.22,0.62,0.2
		C27.06,89.7,27.35,89.62,27.53,89.48z"/>
	<path class="st16" d="M27.24,90.02c0.1-0.18,0.19-0.36,0.29-0.55C27.35,89.62,27.06,89.7,27.24,90.02z"/>
	<path class="st16" d="M405.32,78.45c-0.25,0.04-0.4,0.13-0.32,0.28s0.24,0.28,0.39,0.34c0.25,0.09,0.34-0.09,0.25-0.29
		C405.57,78.63,405.4,78.53,405.32,78.45z"/>
	<path class="st16" d="M103.68,84.09c0.54,0.38,1.15,0.28,1.75,0.23C104.87,84.05,104.23,84.39,103.68,84.09z"/>
	<path class="st16" d="M103.68,84.09c0.56,0.3,1.19-0.04,1.75,0.23C104.88,83.98,104.28,84.05,103.68,84.09z"/>
	<path class="st16" d="M453.34,131.62c0.61,0.07,1.2,0.03,1.76-0.23C454.54,131.66,453.9,131.31,453.34,131.62z"/>
	<path class="st16" d="M453.34,131.62c0.56-0.31,1.2,0.04,1.76-0.23C454.5,131.34,453.88,131.17,453.34,131.62z"/>
	<path class="st16" d="M336.59,63.93c0.04,0.03,0.08,0.05,0.12,0.09c0.27-0.02,0.54-0.04,0.81-0.06c0.01-0.04,0.02-0.09,0.03-0.13
		C337.22,63.79,336.9,63.84,336.59,63.93z"/>
	<path class="st16" d="M336.59,63.93c0.31-0.1,0.63-0.15,0.97-0.11c0.01-0.03,0.02-0.06,0.02-0.1c-0.6-0.05-1.21-0.17-1.74,0.23
		C336.1,63.83,336.35,63.78,336.59,63.93z"/>
	<path class="st16" d="M336.39,64c0.11,0.01,0.22,0.01,0.32,0.02c-0.04-0.04-0.08-0.06-0.12-0.09
		C336.52,63.95,336.46,63.97,336.39,64z"/>
	<path class="st16" d="M336.59,63.93c-0.24-0.16-0.49-0.11-0.75,0.03c0.18,0.01,0.37,0.03,0.55,0.04
		C336.46,63.97,336.52,63.95,336.59,63.93z"/>
	<path class="st16" d="M184.69,141.57c-0.22-0.01-0.52-0.03-0.45,0.29s0.42,0.24,0.68,0.27
		C184.8,141.96,184.47,141.88,184.69,141.57z"/>
	<path class="st16" d="M184.92,142.13c-0.08-0.19-0.15-0.38-0.23-0.56C184.47,141.88,184.8,141.96,184.92,142.13z"/>
	<path class="st16" d="M288,30.6c-0.28,0.06-0.37-0.07-0.32-0.33c-0.23,0.05-0.54,0.13-0.38,0.4C287.49,30.98,287.79,30.84,288,30.6
		z"/>
	<path class="st16" d="M288,30.6C288,30.6,288.01,30.6,288,30.6c-0.11-0.11-0.21-0.22-0.32-0.33C287.63,30.54,287.72,30.66,288,30.6
		z"/>
	<path class="st16" d="M90.95,90.89c-0.19,0-0.38-0.01-0.57-0.01l0,0c0.16,0.16,0.17,0.33,0.02,0.5c0.28,0,0.55,0.01,0.83,0.01
		C91.05,91.28,90.79,91.2,90.95,90.89z"/>
	<path class="st16" d="M91.23,91.39c-0.09-0.17-0.19-0.33-0.28-0.5C90.79,91.2,91.05,91.28,91.23,91.39z"/>
	<path class="st16" d="M90.38,90.88c0.01,0.17,0.01,0.33,0.02,0.5C90.55,91.21,90.54,91.04,90.38,90.88z"/>
	<path class="st16" d="M338.94,63.67L338.94,63.67L338.94,63.67z"/>
	<path class="st16" d="M337.63,63.83c0,0.03,0,0.05-0.02,0.07c-0.03,0.04-0.06,0.06-0.09,0.06c0.5,0.02,1.04,0.23,1.42-0.29l0,0
		C338.54,63.97,338.07,63.77,337.63,63.83z"/>
	<path class="st16" d="M337.63,63.83c0.44-0.06,0.9,0.15,1.31-0.16l0,0l0,0c-0.45,0.02-0.91,0.04-1.36,0.06
		C337.61,63.76,337.63,63.8,337.63,63.83z"/>
	<polygon class="st16" points="338.94,63.67 338.94,63.67 338.95,63.67 	"/>
	<polygon class="st16" points="338.95,63.67 338.94,63.67 338.94,63.67 	"/>
	<path class="st16" d="M337.63,63.83h-0.01c-0.02,0-0.04,0-0.06,0c-0.01,0.04-0.02,0.09-0.03,0.13c0.03,0,0.06-0.02,0.09-0.06
		C337.63,63.88,337.64,63.85,337.63,63.83z"/>
	<path class="st16" d="M337.62,63.83h0.01c-0.01-0.03-0.02-0.06-0.05-0.1c-0.01,0.03-0.02,0.06-0.02,0.1
		C337.58,63.83,337.6,63.82,337.62,63.83z"/>
	<path class="st16" d="M176.1,60.47c0.02-0.01,0.04-0.01,0.06-0.02c0-0.2,0-0.39,0-0.59c-0.02-0.02-0.04-0.02-0.06-0.04
		C175.96,60.04,175.96,60.26,176.1,60.47z"/>
	<path class="st16" d="M332.79,64.22L332.79,64.22c0.43,0.28,0.25,0.82,0.51,1.17C333.3,64.93,333.51,64.37,332.79,64.22z"/>
	<path class="st16" d="M332.79,64.22c0.23,0.36,0.08,0.89,0.51,1.17C333.04,65.04,333.23,64.49,332.79,64.22z"/>
	<path class="st16" d="M252.32,52.94c-0.42-0.35-1.14-0.53-0.49-1.35c0.2-0.24,0.06-0.84-0.59-0.88c-0.26,0.95-0.85,1.79-0.91,2.8
		l0,0C250.67,52.17,251.55,52.72,252.32,52.94z"/>
	<path class="st16" d="M252.32,52.94c-0.78-0.21-1.65-0.76-1.99,0.56C250.77,52.51,251.63,53.03,252.32,52.94z"/>
	<path class="st16" d="M71.74,122.19c0.29,0.1,0.6,0.11,0.91,0.13C72.35,122.24,72.05,122.16,71.74,122.19z"/>
	<path class="st16" d="M72.66,122.31c0.12,0.01,0.23,0.02,0.35,0.04c-0.45-0.46-0.87-1.1-1.57-0.33c0.1,0.08,0.21,0.12,0.32,0.16
		C72.05,122.16,72.35,122.24,72.66,122.31z"/>
	<path class="st16" d="M71.74,122.19c-0.1,0.01-0.2,0.03-0.29,0.06c0.09,0.53,0.51,0.55,1.5,0.13c-0.1-0.02-0.19-0.04-0.29-0.06
		C72.35,122.29,72.03,122.29,71.74,122.19z"/>
	<path class="st16" d="M71.43,122.02c0,0.08,0.01,0.16,0.02,0.22c0.1-0.03,0.2-0.05,0.29-0.06
		C71.63,122.15,71.53,122.1,71.43,122.02z"/>
	<path class="st16" d="M72.66,122.31c0.1,0.02,0.19,0.04,0.29,0.06c0.02-0.01,0.04-0.01,0.06-0.02
		C72.89,122.33,72.77,122.32,72.66,122.31z"/>
	<path class="st16" d="M69.2,132.9c7.16-0.01,14.32,0,21.49-0.01c2.29,0,2.35-0.07,2.36-2.4c0-0.8,0.02-1.6-0.01-2.4
		c-0.05-1.44-0.23-1.64-1.65-1.66c-2.59-0.04-5.18-0.01-7.77-0.01c-2.54,0-5.09,0.02-7.63-0.01c-1.8-0.02-2.12-0.28-2.43-2.03
		c-0.13-0.73-0.42-1.08-1.18-1.08c-1.41,0-2.81,0.29-4.23,0.26c-0.89-0.02-0.79,0.8-0.8,1.39c-0.04,2.17,0,4.33-0.02,6.5
		c-0.01,0.65,0.06,1.33-0.43,1.88l0.01,0.01l0,0C67.59,132.75,68.42,132.9,69.2,132.9z"/>
	<path class="st16" d="M91.91,133.29c0.97,0,1.64-0.07,1.55-1.34c-0.1-1.45-0.1-2.92,0-4.38c0.08-1.25-0.36-1.61-1.6-1.6
		c-5.37,0.06-10.74-0.02-16.11,0.06c-1.41,0.02-1.89-0.5-1.78-1.81c0.02-0.23-0.01-0.47,0-0.71c0.04-0.69-0.19-0.74-0.91-0.73
		c-1.55,0.02-3.08,0.58-4.61,0.24c-1.16-0.26-1.56,0.11-1.55,1.24c0.02,3.01,0,6.03-0.01,9.04c0.49-0.55,0.42-1.23,0.43-1.88
		c0.02-2.17-0.02-4.34,0.02-6.5c0.01-0.58-0.09-1.4,0.8-1.39c1.42,0.03,2.81-0.26,4.23-0.26c0.76,0,1.05,0.35,1.18,1.08
		c0.31,1.76,0.63,2.01,2.43,2.03c2.54,0.03,5.09,0.01,7.63,0.01c2.59,0,5.18-0.02,7.77,0.01c1.42,0.02,1.6,0.22,1.65,1.66
		c0.03,0.8,0.01,1.6,0.01,2.4c-0.01,2.33-0.07,2.39-2.36,2.4c-7.16,0.01-14.32,0-21.49,0.01c-0.79,0-1.62-0.15-2.3,0.43
		c0.47-0.02,0.94-0.05,1.41-0.05C76.18,133.28,84.04,133.27,91.91,133.29z"/>
	<path class="st16" d="M404.06,133.28c0.52,0,1.03,0,1.82,0c-0.64-0.6-1.08-0.58-1.53-0.5l0,0l0,0
		C404.52,133.1,404.27,133.18,404.06,133.28z"/>
	<path class="st16" d="M404.24,133.06c-0.01,0-0.03,0-0.05,0l0,0C404.21,133.06,404.22,133.06,404.24,133.06z"/>
	<path class="st16" d="M404.19,133.06c-0.04,0.07-0.09,0.15-0.13,0.22c0.21-0.1,0.45-0.18,0.29-0.5l0,0
		C404.3,132.87,404.25,132.96,404.19,133.06c0.02,0,0.03,0,0.05,0C404.22,133.06,404.21,133.06,404.19,133.06z"/>
	<path class="st16" d="M284.69,32.34c-0.11-0.08-0.21-0.17-0.3-0.26c0,0.13-0.03,0.23-0.09,0.32
		C284.44,32.35,284.56,32.33,284.69,32.34z"/>
	<path class="st16" d="M284.39,32.07c-0.03-0.03-0.06-0.05-0.08-0.08c-0.09,0.17-0.19,0.34-0.28,0.52c0.09-0.04,0.18-0.08,0.28-0.12
		C284.36,32.3,284.4,32.2,284.39,32.07z"/>
	<path class="st16" d="M284.39,32.07c0.09,0.1,0.19,0.19,0.3,0.26c0.13,0.01,0.27,0.04,0.4,0.14c0.03-0.62-0.38-0.53-0.76-0.48
		c0.02,0.02,0.04,0.03,0.06,0.06C284.4,32.06,284.39,32.06,284.39,32.07z"/>
	<path class="st16" d="M284.4,32.05c-0.02-0.03-0.04-0.04-0.06-0.06c-0.01,0-0.02,0-0.03,0c0.02,0.03,0.06,0.05,0.08,0.08
		C284.39,32.06,284.4,32.06,284.4,32.05z"/>
	<path class="st16" d="M284.31,32.39c-0.03,0.04-0.06,0.08-0.1,0.11c0.23-0.01,0.46-0.01,0.69-0.02c-0.07-0.05-0.14-0.09-0.21-0.14
		C284.56,32.33,284.44,32.35,284.31,32.39z"/>
	<path class="st16" d="M284.31,32.39c-0.09,0.03-0.18,0.07-0.28,0.12c0.06,0,0.12,0,0.18-0.01
		C284.25,32.47,284.28,32.43,284.31,32.39z"/>
	<path class="st16" d="M284.91,32.48c0.06,0,0.13,0,0.19-0.01c-0.14-0.1-0.27-0.13-0.4-0.14C284.76,32.38,284.83,32.43,284.91,32.48
		z"/>
	<path class="st16" d="M151.61,142.35c0.53,0,1.07,0,1.6,0c-0.02-0.04-0.04-0.08-0.06-0.12c-0.52,0-1.04,0-1.56,0
		C151.6,142.27,151.6,142.31,151.61,142.35z"/>
	<path class="st16" d="M249.59,57.33c1.08,0.3,1.84,0.14,2.91-0.52C251.27,56.48,250.52,56.69,249.59,57.33z"/>
</g>
</svg>
