<?xml version="1.0" encoding="utf-8"?>
<!-- Generator: Adobe Illustrator 24.1.2, SVG Export Plug-In . SVG Version: 6.00 Build 0)  -->
<svg version="1.1" id="Capa_1" xmlns="http://www.w3.org/2000/svg" xmlns:xlink="http://www.w3.org/1999/xlink" x="0px" y="0px"
	 viewBox="0 0 500 500" style="enable-background:new 0 0 500 500;" xml:space="preserve">
<style type="text/css">
	.st0{fill:#FFFFFF;}
</style>
<path class="st0" d="M248.93,3.32C112.85,3.31,2.02,113.89,1.84,249.85C1.67,386.16,112.11,497.42,247.72,497.51
	c137.63,0.1,248.28-109.93,248.35-246.95C496.14,114.04,385.47,3.32,248.93,3.32z M248.98,482.63
	C120.92,482.5,16.92,378.21,16.99,250C17.07,122.41,121.11,18.61,249.04,18.5c127.56-0.12,231.69,103.77,232.09,231.54
	C481.53,377.71,376.67,482.76,248.98,482.63z"/>
<g>
	<path class="st0" d="M426.59,246.89c-0.88-19.52-18.05-33.41-36.84-31.63c-18.4,1.74-32.88,19.35-30.51,37.1
		c2.66,19.92,19.15,32.49,39.08,29.92c7.4-0.95,13.29-4.89,20.25-10.37c0,14.01-0.02,26.35,0.01,38.7c0.01,2.63-0.62,5.55,3.75,5.61
		c3.88,0.05,4.42-2.02,4.42-5.12C426.74,289.69,427.55,268.25,426.59,246.89z M392.14,275.25c-14.53-0.18-26.39-12.24-26.13-26.58
		c0.25-14.24,12.65-26.35,26.78-26.15c14.47,0.21,26.07,12.21,25.89,26.77C418.49,264.04,406.84,275.43,392.14,275.25z"/>
	<path class="st0" d="M115.79,215.7c-14.43-4.74-30.57,0.82-38.91,13.42c-8.23,12.43-7.81,29.29,2.24,40.2
		c12.02,13.05,24.94,25.27,37.36,37.96c2.32,2.37,3.94,3.01,6.59,0.35c2.72-2.73,0.82-4.12-0.92-5.79
		c-6.27-6.02-12.55-12.03-20.02-19.19c5.08-0.99,8.35-1.46,11.53-2.28c14.85-3.85,25.22-17.16,25.34-32.36
		C139.11,233.78,129.31,220.15,115.79,215.7z M105.58,273.66c-14.89,0.03-26.34-11.22-26.42-25.97
		c-0.08-14.62,11.53-26.54,25.99-26.69c14.17-0.14,26.55,12.04,26.71,26.27C132.03,261.66,120.1,273.63,105.58,273.66z"/>
	<path class="st0" d="M276.92,227.74c0-10.26-0.08-19.25,0.05-28.23c0.04-3.01-0.86-4.42-4.09-4.29c-2.52,0.1-4.05,0.8-3.94,3.56
		c0.78,19.84-2.14,39.83,0.99,59.5c2.79,17.56,21.79,28.99,39.72,25.35c17.66-3.58,29.23-21.74,26.2-39.36
		C332.18,222.91,303.8,204.67,276.92,227.74z M302.97,276.84c-14.63-0.06-26.22-11.75-26.19-26.41
		c0.03-14.55,11.83-26.31,26.36-26.28c14.49,0.03,26.33,11.95,26.31,26.47C329.42,265.11,317.51,276.9,302.97,276.84z"/>
	<path class="st0" d="M227.48,213.95c-18.33-0.05-33.71,15.87-33.86,35.05c-0.16,19.94,14.64,35.32,34.08,35.42
		c19.04,0.1,34.31-15.46,34.58-35.22C262.53,230.23,246.52,214.01,227.48,213.95z M227.34,276.58c-14.4-0.34-24.98-12.17-24.8-27.75
		c0.17-15.13,10.91-26.55,24.97-26.55c15.12,0,26.21,11.85,25.87,27.63C253.04,265.33,241.73,276.92,227.34,276.58z"/>
	<path class="st0" d="M186.03,244.27c-0.99-22.47-9.38-30.04-31.66-29.41c-15.07,0.43-15.07,0.43-15.41-14.11
		c-0.02-0.9-0.01-1.81,0.04-2.71c0.23-3.54-2.15-3.72-4.73-3.76c-2.51-0.04-3.93,0.83-3.86,3.64c0.11,4.51-0.17,9.04,0.05,13.55
		c0.33,6.95,4.19,10.84,11.1,11.16c5.71,0.26,11.44-0.15,17.16-0.03c11.7,0.25,17.3,5.05,18.44,16.62
		c0.64,6.56,0.12,13.23,0.12,19.85c0.12,0,0.24,0,0.37,0c0,5.72-0.09,11.44,0.04,17.16c0.06,2.69-1.35,6.25,3.79,6.35
		c4.57,0.09,4.6-2.52,4.59-5.81C186.01,265.94,186.51,255.08,186.03,244.27z"/>
	<path class="st0" d="M347.34,216.73c-3.5,0.11-3.68,1.95-3.68,4.61c0,18.91-0.09,37.82-0.15,56.73c-0.01,2.77-0.2,5.38,3.97,5.43
		c4.11,0.06,4.13-2.39,4.12-5.26c-0.03-9.31-0.01-18.61-0.01-27.92c0.04,0,0.07,0,0.11,0c0-9.61-0.11-19.21,0.06-28.81
		C351.82,218.2,351.09,216.62,347.34,216.73z"/>
	<path class="st0" d="M348.03,195.07c-5.74-0.21-4.42,3.67-4.26,6.61c0.15,2.8-1.94,7.01,3.74,7.28c5.69,0.27,3.96-3.85,4.39-6.91
		C350.99,199.62,354.03,195.29,348.03,195.07z"/>
</g>
</svg>
