<?xml version="1.0" encoding="utf-8"?>
<!-- Generator: Adobe Illustrator 24.1.2, SVG Export Plug-In . SVG Version: 6.00 Build 0)  -->
<svg version="1.1" id="Capa_2" xmlns="http://www.w3.org/2000/svg" xmlns:xlink="http://www.w3.org/1999/xlink" x="0px" y="0px"
	 viewBox="0 0 500 500" style="enable-background:new 0 0 500 500;" xml:space="preserve">
<style type="text/css">
	.st0{fill:#FFFFFF;stroke:#FFFFFF;stroke-miterlimit:10;}
</style>
<path class="st0" d="M249.31,2.52c134.94-0.15,245.45,111.2,245.45,247.28c0,136.38-109.97,247.46-245.08,247.56
	C112.38,497.47,2.72,386.87,3.53,247.27C4.31,111.11,115.29,2.17,249.31,2.52z M248.66,26.84C130.61,25.75,29.78,125.78,27.52,244.2
	C25.1,370.28,125.91,472.56,248.06,473.1c119.61,0.53,220.1-98.14,222.46-217.3C472.97,132.63,375.28,27.03,248.66,26.84z"/>
<path class="st0" d="M298.39,251.88c4.97,6.11,6.94,14.66,6.92,24.04c-0.05,41.4,0.09,82.79,0.18,124.19
	c0.01,2.8-0.04,5.62,0.21,8.4c0.43,4.77,3.25,7.58,7.96,7.71c4.71,0.14,7.7-2.52,8.45-7.23c0.34-2.11,0.26-4.29,0.26-6.44
	c0.01-109.32,0.01-218.64,0.01-327.95c0-2.52,0-5.03,0-7.9c8.85,0,16.97,0,26.16,0c0,2.22,0,4.47,0,6.73
	c0.01,110.4,0.05,220.79-0.01,331.19c0,5.14,0.7,9.33,6.15,11.52c1.11,0.44,2.09,2.62,2.14,4.03c0.23,6.44,0.1,12.88,0.1,19.6
	c-6.73,1.76-12.14-0.96-17.29-3.85c-2.9-1.63-4.82-2.14-8.05-0.25c-11.71,6.86-23.64,6.66-35.65,0.16
	c-1.92-1.04-5.34-1.08-7.24-0.06c-12.23,6.56-24.15,6.62-36.32-0.12c-1.75-0.97-4.96-0.97-6.72-0.01
	c-25.32,13.77-52.54-2.36-52.91-31.69c-0.23-18.54-0.03-37.09-0.03-55.63c0-23.5,0.01-47-0.01-70.51c0-2.37-0.13-4.74-0.21-7.11
	c-0.16-5.21-3.2-8.23-8.04-8.37c-5.3-0.15-8.38,3.26-8.55,8.57c-0.27,8.62-0.29,17.24-0.3,25.87c-0.03,36.22,0.09,72.45-0.06,108.67
	c-0.07,17.73-12.56,32.67-28.6,34.79c-1.67,0.22-3.39,0.03-5.88,0.03c0-6.98-0.1-13.81,0.1-20.63c0.03-1.2,1.06-3.07,2.06-3.44
	c5.91-2.17,6.29-6.82,6.29-12.08c-0.05-102.2-0.01-204.4-0.08-306.61c-0.01-9.86,2.22-18.8,8.81-26.31
	c9.53-10.85,24.28-14.68,37.63-9.94c13.29,4.72,22.98,17.34,23.08,32.12c0.31,44.85,0.33,89.7-0.1,134.54
	c-0.06,5.92-2.94,12.02-5.44,17.62c-1.44,3.22-1.65,5.14-0.3,8.64c2.8,7.26,5.64,15.08,5.74,22.71c0.56,42.25,0.3,84.52,0.32,126.78
	c0,1.72-0.14,3.47,0.08,5.17c0.59,4.42,3.41,7.8,7.59,7.13c3.17-0.51,6.47-3.41,8.58-6.13c1.3-1.66,0.59-4.98,0.59-7.56
	c0.02-102.42-0.02-204.84,0.04-307.25c0.01-26.38,25.62-43.41,49.02-32.49c12.82,5.98,19.96,16.59,20.06,30.73
	c0.29,45.06,0.39,90.13-0.19,135.19C304.85,235.76,300.97,243.02,298.39,251.88z M278.94,339.38c0-22.42,0.04-44.85-0.02-67.27
	c-0.02-6.12-3.63-10.43-8.54-9.91c-5.56,0.58-8.21,4.18-8.31,9.7c-0.02,1.08-0.02,2.16-0.02,3.23c0,42.69-0.01,85.38,0.02,128.07
	c0,2.35-0.03,4.8,0.59,7.03c1.42,5.04,7.13,8.07,11.11,5.15c2.61-1.91,4.87-6.15,4.93-9.39
	C279.13,383.8,278.93,361.59,278.94,339.38z M192.72,160.9c0-16.59,0.01-33.18,0-49.77c0-6.25,0.07-12.5-0.12-18.74
	c-0.16-5.31-3.14-8.75-8.4-8.72c-5.31,0.03-7.96,3.68-8.37,8.88c-0.09,1.07-0.02,2.15-0.02,3.23c0,43.09,0,86.18,0.02,129.27
	c0,1.93-0.04,3.91,0.35,5.78c0.9,4.36,3.72,6.79,8.19,6.74c4.44-0.05,7.29-2.44,8-6.89c0.37-2.32,0.36-4.72,0.36-7.08
	C192.73,202.7,192.72,181.8,192.72,160.9z M278.94,161.16c0-9.27,0-18.53,0-27.8c-0.01-13.58-0.01-27.16-0.02-40.73
	c0-5.47-3.03-8.78-8.17-8.93c-5.25-0.16-8.11,3.37-8.63,8.6c-0.11,1.07-0.06,2.15-0.06,3.23c-0.01,43.54-0.02,87.07,0,130.61
	c0,7.5,2.89,11.38,8.38,11.5c5.55,0.13,8.49-3.66,8.5-11.16C278.96,204.7,278.94,182.93,278.94,161.16z"/>
<path class="st0" d="M366.54,364.15c0-11.39-0.13-21.48,0.11-31.57c0.05-1.95,1.37-3.98,2.43-5.78
	c29.84-50.98,29.97-101.97,0.36-153.12c-1.63-2.81-2.68-6.32-2.81-9.55c-0.38-8.98-0.13-17.98-0.13-27.51
	C422.86,189.39,432.66,296.78,366.54,364.15z"/>
<path class="st0" d="M130.8,363.39c-59.52-60.05-61.65-163.78,0.35-226.45c-1.6,13.34,3.42,26.66-4.23,40.19
	c-28.3,50.01-27.1,100.11,1.97,149.65c1.44,2.45,2.41,5.52,2.51,8.34c0.3,8.83,0.09,17.67,0.05,26.51
	C131.45,362.01,131.18,362.39,130.8,363.39z"/>
</svg>
